%TF.GenerationSoftware,KiCad,Pcbnew,6.0.9-8da3e8f707~116~ubuntu20.04.1*%
%TF.CreationDate,2022-11-01T21:27:11-06:00*%
%TF.ProjectId,seedsigner-esp32-dev-board,73656564-7369-4676-9e65-722d65737033,rev?*%
%TF.SameCoordinates,Original*%
%TF.FileFunction,Copper,L2,Bot*%
%TF.FilePolarity,Positive*%
%FSLAX46Y46*%
G04 Gerber Fmt 4.6, Leading zero omitted, Abs format (unit mm)*
G04 Created by KiCad (PCBNEW 6.0.9-8da3e8f707~116~ubuntu20.04.1) date 2022-11-01 21:27:11*
%MOMM*%
%LPD*%
G01*
G04 APERTURE LIST*
%TA.AperFunction,ComponentPad*%
%ADD10R,1.700000X1.700000*%
%TD*%
%TA.AperFunction,ComponentPad*%
%ADD11O,1.700000X1.700000*%
%TD*%
%TA.AperFunction,WasherPad*%
%ADD12C,3.500000*%
%TD*%
%TA.AperFunction,ComponentPad*%
%ADD13R,1.600000X1.600000*%
%TD*%
%TA.AperFunction,ComponentPad*%
%ADD14C,1.600000*%
%TD*%
%TA.AperFunction,ComponentPad*%
%ADD15C,1.530000*%
%TD*%
%TA.AperFunction,ViaPad*%
%ADD16C,0.800000*%
%TD*%
%TA.AperFunction,Conductor*%
%ADD17C,0.250000*%
%TD*%
G04 APERTURE END LIST*
D10*
%TO.P,J2,1,Pin_1*%
%TO.N,GND*%
X67310000Y69596000D03*
D11*
%TO.P,J2,2,Pin_2*%
%TO.N,+5V*%
X67310000Y67056000D03*
%TO.P,J2,3,Pin_3*%
%TO.N,+3.3V*%
X67310000Y64516000D03*
%TO.P,J2,4,Pin_4*%
%TO.N,GND*%
X67310000Y61976000D03*
%TD*%
D12*
%TO.P,H1,*%
%TO.N,*%
X67000000Y37000000D03*
%TD*%
%TO.P,U3,*%
%TO.N,*%
X64560000Y5540000D03*
X6560000Y5540000D03*
X64560000Y29540000D03*
X6560000Y29540000D03*
D10*
%TO.P,U3,1,3V3*%
%TO.N,+3.3V*%
X59800000Y8080000D03*
D11*
%TO.P,U3,2,5V0*%
%TO.N,Net-(U3-Pad2)*%
X59800000Y5540000D03*
%TO.P,U3,3,GPIO2/SDA1*%
%TO.N,unconnected-(U3-Pad3)*%
X57260000Y8080000D03*
%TO.P,U3,4,5V0*%
%TO.N,Net-(U3-Pad2)*%
X57260000Y5540000D03*
%TO.P,U3,5,GPIO3/SCL1*%
%TO.N,unconnected-(U3-Pad5)*%
X54720000Y8080000D03*
%TO.P,U3,6,GND*%
%TO.N,GND*%
X54720000Y5540000D03*
%TO.P,U3,7,GPIO4/GPIO_GCKL*%
%TO.N,unconnected-(U3-Pad7)*%
X52180000Y8080000D03*
%TO.P,U3,8,TXD0/GPIO14*%
%TO.N,unconnected-(U3-Pad8)*%
X52180000Y5540000D03*
%TO.P,U3,9,GND*%
%TO.N,GND*%
X49640000Y8080000D03*
%TO.P,U3,10,RXD0/GPIO15*%
%TO.N,unconnected-(U3-Pad10)*%
X49640000Y5540000D03*
%TO.P,U3,11,GPIO17/GPIO_GEN0*%
%TO.N,/RST*%
X47100000Y8080000D03*
%TO.P,U3,12,GPIO18/GPIO_GEN1*%
%TO.N,unconnected-(U3-Pad12)*%
X47100000Y5540000D03*
%TO.P,U3,13,GPIO27/GPIO_GEN2*%
%TO.N,unconnected-(U3-Pad13)*%
X44560000Y8080000D03*
%TO.P,U3,14,GND*%
%TO.N,GND*%
X44560000Y5540000D03*
%TO.P,U3,15,GPIO22/GPIO_GEN3*%
%TO.N,unconnected-(U3-Pad15)*%
X42020000Y8080000D03*
%TO.P,U3,16,GPIO23/GPIO_GEN4*%
%TO.N,unconnected-(U3-Pad16)*%
X42020000Y5540000D03*
%TO.P,U3,17,3V3*%
%TO.N,+3.3V*%
X39480000Y8080000D03*
%TO.P,U3,18,GPIO24/GPIO_GEN5*%
%TO.N,unconnected-(U3-Pad18)*%
X39480000Y5540000D03*
%TO.P,U3,19,GPIO10/SPI_MOSI*%
%TO.N,/SPI_MOSI*%
X36940000Y8080000D03*
%TO.P,U3,20,GND*%
%TO.N,GND*%
X36940000Y5540000D03*
%TO.P,U3,21,GPIO9/SPI_MISO*%
%TO.N,unconnected-(U3-Pad21)*%
X34400000Y8080000D03*
%TO.P,U3,22,GPIO25/GPIO_GEN6*%
%TO.N,/DC*%
X34400000Y5540000D03*
%TO.P,U3,23,GPIO11/SPI_SCLK*%
%TO.N,/SPI_SCLK*%
X31860000Y8080000D03*
%TO.P,U3,24,GPIO8/~{SPI_CE0}*%
%TO.N,/SPI_CS*%
X31860000Y5540000D03*
%TO.P,U3,25,GND*%
%TO.N,GND*%
X29320000Y8080000D03*
%TO.P,U3,26,GPIO7/~{SPI_CE1}*%
%TO.N,unconnected-(U3-Pad26)*%
X29320000Y5540000D03*
%TO.P,U3,27,ID_SD*%
%TO.N,unconnected-(U3-Pad27)*%
X26780000Y8080000D03*
%TO.P,U3,28,ID_SC*%
%TO.N,unconnected-(U3-Pad28)*%
X26780000Y5540000D03*
%TO.P,U3,29,GPIO5*%
%TO.N,/JOYSTICK_LEFT*%
X24240000Y8080000D03*
%TO.P,U3,30,GND*%
%TO.N,GND*%
X24240000Y5540000D03*
%TO.P,U3,31,GPIO6*%
%TO.N,/JOYSTICK_UP*%
X21700000Y8080000D03*
%TO.P,U3,32,GPIO12*%
%TO.N,unconnected-(U3-Pad32)*%
X21700000Y5540000D03*
%TO.P,U3,33,GPIO13*%
%TO.N,/JOYSTICK_PRESS*%
X19160000Y8080000D03*
%TO.P,U3,34,GND*%
%TO.N,GND*%
X19160000Y5540000D03*
%TO.P,U3,35,GPIO19*%
%TO.N,/JOYSTICK_DOWN*%
X16620000Y8080000D03*
%TO.P,U3,36,GPIO16*%
%TO.N,/KEY3*%
X16620000Y5540000D03*
%TO.P,U3,37,GPIO26*%
%TO.N,/JOYSTICK_RIGHT*%
X14080000Y8080000D03*
%TO.P,U3,38,GPIO20*%
%TO.N,/KEY2*%
X14080000Y5540000D03*
%TO.P,U3,39,GND*%
%TO.N,GND*%
X11540000Y8080000D03*
%TO.P,U3,40,GPIO21*%
%TO.N,/KEY1*%
X11540000Y5540000D03*
%TD*%
D12*
%TO.P,H2,*%
%TO.N,*%
X3000000Y37000000D03*
%TD*%
D13*
%TO.P,C1,1*%
%TO.N,+3.3V*%
X6350000Y19050000D03*
D14*
%TO.P,C1,2*%
%TO.N,GND*%
X6350000Y16550000D03*
%TD*%
D12*
%TO.P,H4,*%
%TO.N,*%
X3000000Y75000000D03*
%TD*%
D15*
%TO.P,U1,0,GPIO0*%
%TO.N,/KEY3*%
X12700000Y38100000D03*
%TO.P,U1,1,GPIO1*%
%TO.N,/KEY2*%
X15240000Y38100000D03*
%TO.P,U1,2,GPIO2*%
%TO.N,/KEY1*%
X17780000Y38100000D03*
%TO.P,U1,3,GPIO3*%
%TO.N,/JOYSTICK_RIGHT*%
X20320000Y38100000D03*
%TO.P,U1,3V3,VDD33*%
%TO.N,+3.3V*%
X10160000Y38100000D03*
%TO.P,U1,4,GPIO4*%
%TO.N,/JOYSTICK_DOWN*%
X22860000Y38100000D03*
%TO.P,U1,5,GPIO5*%
%TO.N,/JOYSTICK_PRESS*%
X25400000Y38100000D03*
%TO.P,U1,5V,+5V*%
%TO.N,+5V*%
X58420000Y38100000D03*
%TO.P,U1,6,GPIO6*%
%TO.N,/JOYSTICK_UP*%
X27940000Y38100000D03*
%TO.P,U1,7,GPIO7*%
%TO.N,/JOYSTICK_LEFT*%
X30480000Y38100000D03*
%TO.P,U1,8,GPIO8*%
%TO.N,/SDA*%
X33020000Y38100000D03*
%TO.P,U1,9,GPIO9*%
%TO.N,/SCL*%
X35560000Y38100000D03*
%TO.P,U1,10,GPIO10*%
%TO.N,/SPI_CS*%
X38100000Y38100000D03*
%TO.P,U1,11,GPIO11*%
%TO.N,/SPI_MOSI*%
X40640000Y38100000D03*
%TO.P,U1,12,GPIO12*%
%TO.N,/SPI_SCLK*%
X43180000Y38100000D03*
%TO.P,U1,13,GPIO13*%
%TO.N,/DC*%
X45720000Y38100000D03*
%TO.P,U1,14,GPIO14*%
%TO.N,/RST*%
X48260000Y38100000D03*
%TO.P,U1,15,GPIO15*%
%TO.N,/HREF*%
X50800000Y38100000D03*
%TO.P,U1,16,GPIO16*%
%TO.N,/VSYNC*%
X53340000Y38100000D03*
%TO.P,U1,17,GPIO17*%
%TO.N,/TX1*%
X55880000Y38100000D03*
%TO.P,U1,18,EXT_GPIO18*%
%TO.N,/RX1*%
X60960000Y63500000D03*
%TO.P,U1,19,GPIO19*%
%TO.N,unconnected-(U1-Pad19)*%
X58420000Y63500000D03*
%TO.P,U1,20,GPIO20*%
%TO.N,unconnected-(U1-Pad20)*%
X55880000Y63500000D03*
%TO.P,U1,21,GPIO21*%
%TO.N,unconnected-(U1-Pad21)*%
X53340000Y63500000D03*
%TO.P,U1,26,GPIO26*%
%TO.N,/PSRAM_NO_USE*%
X50800000Y63500000D03*
%TO.P,U1,33,GPIO33*%
%TO.N,/PCLK*%
X48260000Y63500000D03*
%TO.P,U1,34,GPIO34*%
%TO.N,/XCLK*%
X45720000Y63500000D03*
%TO.P,U1,35,GPIO35*%
%TO.N,/D9*%
X43180000Y63500000D03*
%TO.P,U1,36,GPIO36*%
%TO.N,/D8*%
X40640000Y63500000D03*
%TO.P,U1,37,GPIO37*%
%TO.N,/D7*%
X38100000Y63500000D03*
%TO.P,U1,38,GPIO38*%
%TO.N,/D6*%
X35560000Y63500000D03*
%TO.P,U1,39,GPIO39*%
%TO.N,/D5*%
X33020000Y63500000D03*
%TO.P,U1,40,GPIO40*%
%TO.N,/D4*%
X30480000Y63500000D03*
%TO.P,U1,41,GPIO41*%
%TO.N,/D3*%
X27940000Y63500000D03*
%TO.P,U1,42,GPIO42*%
%TO.N,/D2*%
X25400000Y63500000D03*
%TO.P,U1,45,GPIO45*%
%TO.N,unconnected-(U1-Pad45)*%
X17780000Y63500000D03*
%TO.P,U1,46,GPIO46*%
%TO.N,unconnected-(U1-Pad46)*%
X15240000Y63500000D03*
%TO.P,U1,GND_1,GND*%
%TO.N,GND*%
X60960000Y38100000D03*
%TO.P,U1,GND_2,GND*%
X10160000Y63500000D03*
%TO.P,U1,RST,CHIP_PU*%
%TO.N,unconnected-(U1-PadRST)*%
X12700000Y63500000D03*
%TO.P,U1,RX,U0RXD*%
%TO.N,unconnected-(U1-PadRX)*%
X20320000Y63500000D03*
%TO.P,U1,TX,U0TXD*%
%TO.N,unconnected-(U1-PadTX)*%
X22860000Y63500000D03*
%TD*%
D12*
%TO.P,H3,*%
%TO.N,*%
X67000000Y75000000D03*
%TD*%
D10*
%TO.P,J1,1,Pin_1*%
%TO.N,GND*%
X21844000Y75692000D03*
D11*
%TO.P,J1,2,Pin_2*%
%TO.N,/TX1*%
X19304000Y75692000D03*
%TO.P,J1,3,Pin_3*%
%TO.N,/RX1*%
X16764000Y75692000D03*
%TO.P,J1,4,Pin_4*%
%TO.N,+3.3V*%
X14224000Y75692000D03*
%TO.P,J1,5,Pin_5*%
%TO.N,/IO_TRIG*%
X11684000Y75692000D03*
%TO.P,J1,6,Pin_6*%
%TO.N,/IO_IN*%
X9144000Y75692000D03*
%TD*%
D10*
%TO.P,U2,1,3.3V*%
%TO.N,+3.3V*%
X53848000Y72136000D03*
D11*
%TO.P,U2,2,GND*%
%TO.N,GND*%
X53848000Y74676000D03*
%TO.P,U2,3,SIOC*%
%TO.N,/SCL*%
X51308000Y72136000D03*
%TO.P,U2,4,SIOD*%
%TO.N,/SDA*%
X51308000Y74676000D03*
%TO.P,U2,5,VSYNC*%
%TO.N,/VSYNC*%
X48768000Y72136000D03*
%TO.P,U2,6,HREF*%
%TO.N,/HREF*%
X48768000Y74676000D03*
%TO.P,U2,7,PCLK*%
%TO.N,/PCLK*%
X46228000Y72136000D03*
%TO.P,U2,8,XCLK*%
%TO.N,/XCLK*%
X46228000Y74676000D03*
%TO.P,U2,9,D9*%
%TO.N,/D9*%
X43688000Y72136000D03*
%TO.P,U2,10,D8*%
%TO.N,/D8*%
X43688000Y74676000D03*
%TO.P,U2,11,D7*%
%TO.N,/D7*%
X41148000Y72136000D03*
%TO.P,U2,12,D6*%
%TO.N,/D6*%
X41148000Y74676000D03*
%TO.P,U2,13,D5*%
%TO.N,/D5*%
X38608000Y72136000D03*
%TO.P,U2,14,D4*%
%TO.N,/D4*%
X38608000Y74676000D03*
%TO.P,U2,15,D3*%
%TO.N,/D3*%
X36068000Y72136000D03*
%TO.P,U2,16,D2*%
%TO.N,/D2*%
X36068000Y74676000D03*
%TO.P,U2,17,RET*%
%TO.N,unconnected-(U2-Pad17)*%
X33528000Y72136000D03*
%TO.P,U2,18,PDWN*%
%TO.N,unconnected-(U2-Pad18)*%
X33528000Y74676000D03*
%TD*%
D16*
%TO.N,+3.3V*%
X23359253Y58919253D03*
%TO.N,/SDA*%
X44450000Y66548000D03*
%TO.N,/SCL*%
X46990000Y66548000D03*
%TO.N,/SPI_SCLK*%
X36195000Y31115000D03*
%TO.N,GND*%
X60452000Y68834000D03*
%TO.N,/TX1*%
X24638000Y61468000D03*
X55880000Y61468000D03*
%TO.N,/RX1*%
X28702000Y59944000D03*
%TD*%
D17*
%TO.N,Net-(U3-Pad2)*%
X57260000Y5540000D02*
X59800000Y5540000D01*
%TO.N,GND*%
X49640000Y8080000D02*
X50862000Y6858000D01*
X50862000Y6858000D02*
X53402000Y6858000D01*
X53402000Y6858000D02*
X54720000Y5540000D01*
X36910000Y6905000D02*
X45513000Y6905000D01*
X45513000Y6905000D02*
X48465000Y6905000D01*
X44560000Y5540000D02*
X45513000Y6493000D01*
X45513000Y6493000D02*
X45513000Y6905000D01*
%TO.N,+3.3V*%
X65151000Y66675000D02*
X59690000Y72136000D01*
X67310000Y64516000D02*
X65151000Y66675000D01*
X23359253Y58919253D02*
X23368000Y58928000D01*
X23368000Y58928000D02*
X60706000Y58928000D01*
X60706000Y58928000D02*
X63754000Y61976000D01*
X63754000Y61976000D02*
X63754000Y65278000D01*
X63754000Y65278000D02*
X65151000Y66675000D01*
X59690000Y72136000D02*
X53848000Y72136000D01*
X39480000Y11955000D02*
X39480000Y10685000D01*
X59165000Y10685000D02*
X59800000Y10050000D01*
X39480000Y10685000D02*
X59165000Y10685000D01*
X39480000Y10685000D02*
X39480000Y8080000D01*
X6350000Y23495000D02*
X10160000Y27305000D01*
X59800000Y10050000D02*
X59800000Y8080000D01*
X23495000Y13970000D02*
X37465000Y13970000D01*
X10160000Y38100000D02*
X10160000Y45720000D01*
X10160000Y38100000D02*
X10160000Y27305000D01*
X37465000Y13970000D02*
X39480000Y11955000D01*
X6350000Y19050000D02*
X6350000Y23495000D01*
X10160000Y45720000D02*
X23359253Y58919253D01*
X10160000Y27305000D02*
X23495000Y13970000D01*
%TO.N,/SDA*%
X45466000Y67564000D02*
X44450000Y66548000D01*
X50038000Y68834000D02*
X48768000Y67564000D01*
X51308000Y74676000D02*
X50038000Y73406000D01*
X50038000Y73406000D02*
X50038000Y68834000D01*
X48768000Y67564000D02*
X45466000Y67564000D01*
%TO.N,/SCL*%
X51308000Y67818000D02*
X51308000Y72136000D01*
X46990000Y66548000D02*
X50038000Y66548000D01*
X50038000Y66548000D02*
X51308000Y67818000D01*
%TO.N,/SPI_SCLK*%
X43180000Y33655000D02*
X43180000Y38100000D01*
X40640000Y31115000D02*
X43180000Y33655000D01*
X36195000Y31115000D02*
X40640000Y31115000D01*
%TO.N,GND*%
X36940000Y5540000D02*
X36940000Y6875000D01*
X21590000Y69342000D02*
X21844000Y69596000D01*
X36940000Y6875000D02*
X36910000Y6905000D01*
X57150000Y65532000D02*
X60452000Y68834000D01*
X14255000Y10795000D02*
X26605000Y10795000D01*
X10160000Y63500000D02*
X15240000Y68580000D01*
X9065000Y8080000D02*
X11540000Y8080000D01*
X48465000Y6905000D02*
X49640000Y8080000D01*
X30495000Y6905000D02*
X36910000Y6905000D01*
X20828000Y68580000D02*
X21590000Y69342000D01*
X26605000Y10795000D02*
X29320000Y8080000D01*
X60960000Y53340000D02*
X60960000Y38100000D01*
X11540000Y8080000D02*
X14255000Y10795000D01*
X29320000Y8080000D02*
X30495000Y6905000D01*
X6350000Y10795000D02*
X9065000Y8080000D01*
X21844000Y69596000D02*
X21844000Y75692000D01*
X6350000Y16550000D02*
X6350000Y10795000D01*
X21590000Y69342000D02*
X25400000Y65532000D01*
X25400000Y65532000D02*
X57150000Y65532000D01*
X15240000Y68580000D02*
X20828000Y68580000D01*
%TO.N,/TX1*%
X24638000Y61468000D02*
X55880000Y61468000D01*
%TO.N,/RX1*%
X60960000Y61976000D02*
X60960000Y63500000D01*
X28702000Y59944000D02*
X58928000Y59944000D01*
X58928000Y59944000D02*
X60960000Y61976000D01*
%TD*%
M02*
