%TF.GenerationSoftware,KiCad,Pcbnew,6.0.9-8da3e8f707~116~ubuntu20.04.1*%
%TF.CreationDate,2022-11-01T21:27:12-06:00*%
%TF.ProjectId,seedsigner-esp32-dev-board,73656564-7369-4676-9e65-722d65737033,rev?*%
%TF.SameCoordinates,Original*%
%TF.FileFunction,Legend,Top*%
%TF.FilePolarity,Positive*%
%FSLAX46Y46*%
G04 Gerber Fmt 4.6, Leading zero omitted, Abs format (unit mm)*
G04 Created by KiCad (PCBNEW 6.0.9-8da3e8f707~116~ubuntu20.04.1) date 2022-11-01 21:27:12*
%MOMM*%
%LPD*%
G01*
G04 APERTURE LIST*
%ADD10C,0.300000*%
%ADD11C,0.400000*%
%ADD12C,0.150000*%
%ADD13C,0.500000*%
%ADD14C,0.120000*%
%ADD15C,1.250000*%
G04 APERTURE END LIST*
D10*
X3508333Y48514285D02*
X3508333Y49466666D01*
X4079761Y48323809D02*
X2079761Y48990476D01*
X4079761Y49657142D01*
X4079761Y50323809D02*
X2079761Y50323809D01*
X4079761Y51466666D01*
X2079761Y51466666D01*
X2079761Y52133333D02*
X2079761Y53276190D01*
X4079761Y52704761D02*
X2079761Y52704761D01*
X9161419Y65361428D02*
X9348919Y66861428D01*
X9706062Y66861428D01*
X9911419Y66790000D01*
X10036419Y66647142D01*
X10089991Y66504285D01*
X10125705Y66218571D01*
X10098919Y66004285D01*
X9991776Y65718571D01*
X9902491Y65575714D01*
X9741776Y65432857D01*
X9518562Y65361428D01*
X9161419Y65361428D01*
X11241776Y65432857D02*
X11089991Y65361428D01*
X10804276Y65361428D01*
X10670348Y65432857D01*
X10616776Y65575714D01*
X10688205Y66147142D01*
X10777491Y66290000D01*
X10929276Y66361428D01*
X11214991Y66361428D01*
X11348919Y66290000D01*
X11402491Y66147142D01*
X11384633Y66004285D01*
X10652491Y65861428D01*
X11929276Y66361428D02*
X12161419Y65361428D01*
X12643562Y66361428D01*
X14831062Y66147142D02*
X15036419Y66075714D01*
X15098919Y66004285D01*
X15152491Y65861428D01*
X15125705Y65647142D01*
X15036419Y65504285D01*
X14956062Y65432857D01*
X14804276Y65361428D01*
X14232848Y65361428D01*
X14420348Y66861428D01*
X14920348Y66861428D01*
X15054276Y66790000D01*
X15116776Y66718571D01*
X15170348Y66575714D01*
X15152491Y66432857D01*
X15063205Y66290000D01*
X14982848Y66218571D01*
X14831062Y66147142D01*
X14331062Y66147142D01*
X15947133Y65361428D02*
X15813205Y65432857D01*
X15750705Y65504285D01*
X15697133Y65647142D01*
X15750705Y66075714D01*
X15839991Y66218571D01*
X15920348Y66290000D01*
X16072133Y66361428D01*
X16286419Y66361428D01*
X16420348Y66290000D01*
X16482848Y66218571D01*
X16536419Y66075714D01*
X16482848Y65647142D01*
X16393562Y65504285D01*
X16313205Y65432857D01*
X16161419Y65361428D01*
X15947133Y65361428D01*
X17732848Y65361428D02*
X17831062Y66147142D01*
X17777491Y66290000D01*
X17643562Y66361428D01*
X17357848Y66361428D01*
X17206062Y66290000D01*
X17741776Y65432857D02*
X17589991Y65361428D01*
X17232848Y65361428D01*
X17098919Y65432857D01*
X17045348Y65575714D01*
X17063205Y65718571D01*
X17152491Y65861428D01*
X17304276Y65932857D01*
X17661419Y65932857D01*
X17813205Y66004285D01*
X18447133Y65361428D02*
X18572133Y66361428D01*
X18536419Y66075714D02*
X18625705Y66218571D01*
X18706062Y66290000D01*
X18857848Y66361428D01*
X19000705Y66361428D01*
X20018562Y65361428D02*
X20206062Y66861428D01*
X20027491Y65432857D02*
X19875705Y65361428D01*
X19589991Y65361428D01*
X19456062Y65432857D01*
X19393562Y65504285D01*
X19339991Y65647142D01*
X19393562Y66075714D01*
X19482848Y66218571D01*
X19563205Y66290000D01*
X19714991Y66361428D01*
X20000705Y66361428D01*
X20134633Y66290000D01*
X61864761Y44276190D02*
X59864761Y44276190D01*
X61293333Y44942857D01*
X59864761Y45609523D01*
X61864761Y45609523D01*
X61864761Y46561904D02*
X60531428Y46561904D01*
X59864761Y46561904D02*
X59960000Y46466666D01*
X60055238Y46561904D01*
X59960000Y46657142D01*
X59864761Y46561904D01*
X60055238Y46561904D01*
X61769523Y48371428D02*
X61864761Y48180952D01*
X61864761Y47800000D01*
X61769523Y47609523D01*
X61674285Y47514285D01*
X61483809Y47419047D01*
X60912380Y47419047D01*
X60721904Y47514285D01*
X60626666Y47609523D01*
X60531428Y47800000D01*
X60531428Y48180952D01*
X60626666Y48371428D01*
X61864761Y49228571D02*
X60531428Y49228571D01*
X60912380Y49228571D02*
X60721904Y49323809D01*
X60626666Y49419047D01*
X60531428Y49609523D01*
X60531428Y49800000D01*
X61864761Y50752380D02*
X61769523Y50561904D01*
X61674285Y50466666D01*
X61483809Y50371428D01*
X60912380Y50371428D01*
X60721904Y50466666D01*
X60626666Y50561904D01*
X60531428Y50752380D01*
X60531428Y51038095D01*
X60626666Y51228571D01*
X60721904Y51323809D01*
X60912380Y51419047D01*
X61483809Y51419047D01*
X61674285Y51323809D01*
X61769523Y51228571D01*
X61864761Y51038095D01*
X61864761Y50752380D01*
X59864761Y52276190D02*
X61483809Y52276190D01*
X61674285Y52371428D01*
X61769523Y52466666D01*
X61864761Y52657142D01*
X61864761Y53038095D01*
X61769523Y53228571D01*
X61674285Y53323809D01*
X61483809Y53419047D01*
X59864761Y53419047D01*
X61769523Y54276190D02*
X61864761Y54561904D01*
X61864761Y55038095D01*
X61769523Y55228571D01*
X61674285Y55323809D01*
X61483809Y55419047D01*
X61293333Y55419047D01*
X61102857Y55323809D01*
X61007619Y55228571D01*
X60912380Y55038095D01*
X60817142Y54657142D01*
X60721904Y54466666D01*
X60626666Y54371428D01*
X60436190Y54276190D01*
X60245714Y54276190D01*
X60055238Y54371428D01*
X59960000Y54466666D01*
X59864761Y54657142D01*
X59864761Y55133333D01*
X59960000Y55419047D01*
X60817142Y56942857D02*
X60912380Y57228571D01*
X61007619Y57323809D01*
X61198095Y57419047D01*
X61483809Y57419047D01*
X61674285Y57323809D01*
X61769523Y57228571D01*
X61864761Y57038095D01*
X61864761Y56276190D01*
X59864761Y56276190D01*
X59864761Y56942857D01*
X59960000Y57133333D01*
X60055238Y57228571D01*
X60245714Y57323809D01*
X60436190Y57323809D01*
X60626666Y57228571D01*
X60721904Y57133333D01*
X60817142Y56942857D01*
X60817142Y56276190D01*
D11*
X23925000Y48950714D02*
X24353571Y48807857D01*
X25067857Y48807857D01*
X25353571Y48950714D01*
X25496428Y49093571D01*
X25639285Y49379285D01*
X25639285Y49665000D01*
X25496428Y49950714D01*
X25353571Y50093571D01*
X25067857Y50236428D01*
X24496428Y50379285D01*
X24210714Y50522142D01*
X24067857Y50665000D01*
X23925000Y50950714D01*
X23925000Y51236428D01*
X24067857Y51522142D01*
X24210714Y51665000D01*
X24496428Y51807857D01*
X25210714Y51807857D01*
X25639285Y51665000D01*
X26782142Y49665000D02*
X28210714Y49665000D01*
X26496428Y48807857D02*
X27496428Y51807857D01*
X28496428Y48807857D01*
X30067857Y51807857D02*
X30639285Y51807857D01*
X30925000Y51665000D01*
X31210714Y51379285D01*
X31353571Y50807857D01*
X31353571Y49807857D01*
X31210714Y49236428D01*
X30925000Y48950714D01*
X30639285Y48807857D01*
X30067857Y48807857D01*
X29782142Y48950714D01*
X29496428Y49236428D01*
X29353571Y49807857D01*
X29353571Y50807857D01*
X29496428Y51379285D01*
X29782142Y51665000D01*
X30067857Y51807857D01*
X34067857Y48807857D02*
X32639285Y48807857D01*
X32639285Y51807857D01*
X34925000Y49665000D02*
X36353571Y49665000D01*
X34639285Y48807857D02*
X35639285Y51807857D01*
X36639285Y48807857D01*
X37639285Y49950714D02*
X39925000Y49950714D01*
X42925000Y48807857D02*
X41210714Y48807857D01*
X42067857Y48807857D02*
X42067857Y51807857D01*
X41782142Y51379285D01*
X41496428Y51093571D01*
X41210714Y50950714D01*
X45925000Y48807857D02*
X44925000Y50236428D01*
X44210714Y48807857D02*
X44210714Y51807857D01*
X45353571Y51807857D01*
X45639285Y51665000D01*
X45782142Y51522142D01*
X45925000Y51236428D01*
X45925000Y50807857D01*
X45782142Y50522142D01*
X45639285Y50379285D01*
X45353571Y50236428D01*
X44210714Y50236428D01*
X28718809Y25270238D02*
X29195000Y23270238D01*
X29575952Y24698809D01*
X29956904Y23270238D01*
X30433095Y25270238D01*
X32052142Y23270238D02*
X32052142Y24317857D01*
X31956904Y24508333D01*
X31766428Y24603571D01*
X31385476Y24603571D01*
X31195000Y24508333D01*
X32052142Y23365476D02*
X31861666Y23270238D01*
X31385476Y23270238D01*
X31195000Y23365476D01*
X31099761Y23555952D01*
X31099761Y23746428D01*
X31195000Y23936904D01*
X31385476Y24032142D01*
X31861666Y24032142D01*
X32052142Y24127380D01*
X32814047Y24603571D02*
X33290238Y23270238D01*
X33766428Y24603571D01*
X35290238Y23365476D02*
X35099761Y23270238D01*
X34718809Y23270238D01*
X34528333Y23365476D01*
X34433095Y23555952D01*
X34433095Y24317857D01*
X34528333Y24508333D01*
X34718809Y24603571D01*
X35099761Y24603571D01*
X35290238Y24508333D01*
X35385476Y24317857D01*
X35385476Y24127380D01*
X34433095Y23936904D01*
X36147380Y23365476D02*
X36337857Y23270238D01*
X36718809Y23270238D01*
X36909285Y23365476D01*
X37004523Y23555952D01*
X37004523Y23651190D01*
X36909285Y23841666D01*
X36718809Y23936904D01*
X36433095Y23936904D01*
X36242619Y24032142D01*
X36147380Y24222619D01*
X36147380Y24317857D01*
X36242619Y24508333D01*
X36433095Y24603571D01*
X36718809Y24603571D01*
X36909285Y24508333D01*
X37861666Y23270238D02*
X37861666Y25270238D01*
X38718809Y23270238D02*
X38718809Y24317857D01*
X38623571Y24508333D01*
X38433095Y24603571D01*
X38147380Y24603571D01*
X37956904Y24508333D01*
X37861666Y24413095D01*
X40528333Y23270238D02*
X40528333Y24317857D01*
X40433095Y24508333D01*
X40242619Y24603571D01*
X39861666Y24603571D01*
X39671190Y24508333D01*
X40528333Y23365476D02*
X40337857Y23270238D01*
X39861666Y23270238D01*
X39671190Y23365476D01*
X39575952Y23555952D01*
X39575952Y23746428D01*
X39671190Y23936904D01*
X39861666Y24032142D01*
X40337857Y24032142D01*
X40528333Y24127380D01*
X41480714Y23270238D02*
X41480714Y24603571D01*
X41480714Y24222619D02*
X41575952Y24413095D01*
X41671190Y24508333D01*
X41861666Y24603571D01*
X42052142Y24603571D01*
X43480714Y23365476D02*
X43290238Y23270238D01*
X42909285Y23270238D01*
X42718809Y23365476D01*
X42623571Y23555952D01*
X42623571Y24317857D01*
X42718809Y24508333D01*
X42909285Y24603571D01*
X43290238Y24603571D01*
X43480714Y24508333D01*
X43575952Y24317857D01*
X43575952Y24127380D01*
X42623571Y23936904D01*
X34814047Y20050238D02*
X33861666Y20050238D01*
X33861666Y22050238D01*
X36623571Y20240714D02*
X36528333Y20145476D01*
X36242619Y20050238D01*
X36052142Y20050238D01*
X35766428Y20145476D01*
X35575952Y20335952D01*
X35480714Y20526428D01*
X35385476Y20907380D01*
X35385476Y21193095D01*
X35480714Y21574047D01*
X35575952Y21764523D01*
X35766428Y21955000D01*
X36052142Y22050238D01*
X36242619Y22050238D01*
X36528333Y21955000D01*
X36623571Y21859761D01*
X37480714Y20050238D02*
X37480714Y22050238D01*
X37956904Y22050238D01*
X38242619Y21955000D01*
X38433095Y21764523D01*
X38528333Y21574047D01*
X38623571Y21193095D01*
X38623571Y20907380D01*
X38528333Y20526428D01*
X38433095Y20335952D01*
X38242619Y20145476D01*
X37956904Y20050238D01*
X37480714Y20050238D01*
X34004523Y16830238D02*
X34004523Y18830238D01*
X34004523Y17877857D02*
X35147380Y17877857D01*
X35147380Y16830238D02*
X35147380Y18830238D01*
X36004523Y17401666D02*
X36956904Y17401666D01*
X35814047Y16830238D02*
X36480714Y18830238D01*
X37147380Y16830238D01*
X37528333Y18830238D02*
X38671190Y18830238D01*
X38099761Y16830238D02*
X38099761Y18830238D01*
D12*
%TO.C,U3*%
X3048095Y34202619D02*
X3048095Y33393095D01*
X3095714Y33297857D01*
X3143333Y33250238D01*
X3238571Y33202619D01*
X3429047Y33202619D01*
X3524285Y33250238D01*
X3571904Y33297857D01*
X3619523Y33393095D01*
X3619523Y34202619D01*
X4000476Y34202619D02*
X4619523Y34202619D01*
X4286190Y33821666D01*
X4429047Y33821666D01*
X4524285Y33774047D01*
X4571904Y33726428D01*
X4619523Y33631190D01*
X4619523Y33393095D01*
X4571904Y33297857D01*
X4524285Y33250238D01*
X4429047Y33202619D01*
X4143333Y33202619D01*
X4048095Y33250238D01*
X4000476Y33297857D01*
%TO.C,C1*%
X6183333Y21232857D02*
X6135714Y21185238D01*
X5992857Y21137619D01*
X5897619Y21137619D01*
X5754761Y21185238D01*
X5659523Y21280476D01*
X5611904Y21375714D01*
X5564285Y21566190D01*
X5564285Y21709047D01*
X5611904Y21899523D01*
X5659523Y21994761D01*
X5754761Y22090000D01*
X5897619Y22137619D01*
X5992857Y22137619D01*
X6135714Y22090000D01*
X6183333Y22042380D01*
X7135714Y21137619D02*
X6564285Y21137619D01*
X6850000Y21137619D02*
X6850000Y22137619D01*
X6754761Y21994761D01*
X6659523Y21899523D01*
X6564285Y21851904D01*
%TO.C,U1*%
X1270095Y61507619D02*
X1270095Y60698095D01*
X1317714Y60602857D01*
X1365333Y60555238D01*
X1460571Y60507619D01*
X1651047Y60507619D01*
X1746285Y60555238D01*
X1793904Y60602857D01*
X1841523Y60698095D01*
X1841523Y61507619D01*
X2841523Y60507619D02*
X2270095Y60507619D01*
X2555809Y60507619D02*
X2555809Y61507619D01*
X2460571Y61364761D01*
X2365333Y61269523D01*
X2270095Y61221904D01*
X7072380Y37369904D02*
X7072380Y37988952D01*
X7453333Y37655619D01*
X7453333Y37798476D01*
X7500952Y37893714D01*
X7548571Y37941333D01*
X7643809Y37988952D01*
X7881904Y37988952D01*
X7977142Y37941333D01*
X8024761Y37893714D01*
X8072380Y37798476D01*
X8072380Y37512761D01*
X8024761Y37417523D01*
X7977142Y37369904D01*
X7072380Y38274666D02*
X8072380Y38608000D01*
X7072380Y38941333D01*
X7072380Y39179428D02*
X7072380Y39798476D01*
X7453333Y39465142D01*
X7453333Y39608000D01*
X7500952Y39703238D01*
X7548571Y39750857D01*
X7643809Y39798476D01*
X7881904Y39798476D01*
X7977142Y39750857D01*
X8024761Y39703238D01*
X8072380Y39608000D01*
X8072380Y39322285D01*
X8024761Y39227047D01*
X7977142Y39179428D01*
X7120000Y62738095D02*
X7072380Y62642857D01*
X7072380Y62500000D01*
X7120000Y62357142D01*
X7215238Y62261904D01*
X7310476Y62214285D01*
X7500952Y62166666D01*
X7643809Y62166666D01*
X7834285Y62214285D01*
X7929523Y62261904D01*
X8024761Y62357142D01*
X8072380Y62500000D01*
X8072380Y62595238D01*
X8024761Y62738095D01*
X7977142Y62785714D01*
X7643809Y62785714D01*
X7643809Y62595238D01*
X8072380Y63214285D02*
X7072380Y63214285D01*
X8072380Y63785714D01*
X7072380Y63785714D01*
X8072380Y64261904D02*
X7072380Y64261904D01*
X7072380Y64500000D01*
X7120000Y64642857D01*
X7215238Y64738095D01*
X7310476Y64785714D01*
X7500952Y64833333D01*
X7643809Y64833333D01*
X7834285Y64785714D01*
X7929523Y64738095D01*
X8024761Y64642857D01*
X8072380Y64500000D01*
X8072380Y64261904D01*
%TO.C,LOGO1*%
G36*
X21664404Y71450115D02*
G01*
X21681339Y71466075D01*
X21699352Y71477856D01*
X21724043Y71486092D01*
X21761011Y71491417D01*
X21815853Y71494467D01*
X21894168Y71495875D01*
X22001555Y71496276D01*
X22071973Y71496297D01*
X22210440Y71495563D01*
X22317486Y71493083D01*
X22399300Y71488434D01*
X22462066Y71481196D01*
X22511971Y71470946D01*
X22532968Y71464898D01*
X22665229Y71404573D01*
X22777601Y71316299D01*
X22866722Y71205711D01*
X22929227Y71078442D01*
X22961754Y70940127D01*
X22960939Y70796399D01*
X22954756Y70758356D01*
X22926282Y70646555D01*
X22886048Y70554711D01*
X22830700Y70470889D01*
X22788162Y70414445D01*
X22889933Y70179880D01*
X22927479Y70091016D01*
X22958777Y70012505D01*
X22980998Y69951782D01*
X22991313Y69916280D01*
X22991704Y69912502D01*
X22974667Y69868199D01*
X22929765Y69823764D01*
X22866308Y69784883D01*
X22793608Y69757240D01*
X22720976Y69746522D01*
X22719871Y69746519D01*
X22678411Y69752126D01*
X22642194Y69772084D01*
X22607622Y69811096D01*
X22571095Y69873866D01*
X22529015Y69965099D01*
X22500495Y70033280D01*
X22417852Y70235375D01*
X22225000Y70235540D01*
X22032148Y70235704D01*
X22032148Y70069178D01*
X22027140Y69942340D01*
X22012039Y69851317D01*
X21986730Y69795643D01*
X21960020Y69776513D01*
X21864920Y69758898D01*
X21770979Y69758628D01*
X21732030Y69765084D01*
X21704902Y69771817D01*
X21682467Y69779789D01*
X21664277Y69792369D01*
X21649890Y69812924D01*
X21638859Y69844821D01*
X21630739Y69891427D01*
X21625084Y69956110D01*
X21621451Y70042238D01*
X21619393Y70153177D01*
X21618465Y70292295D01*
X21618223Y70462960D01*
X21618222Y70625859D01*
X21618222Y70649630D01*
X22032148Y70649630D01*
X22203342Y70649630D01*
X22321105Y70654036D01*
X22404172Y70667415D01*
X22435803Y70678703D01*
X22498247Y70726773D01*
X22535853Y70793671D01*
X22548441Y70869918D01*
X22535831Y70946035D01*
X22497844Y71012543D01*
X22442970Y71055754D01*
X22387381Y71071650D01*
X22296742Y71080495D01*
X22211823Y71082371D01*
X22032148Y71082371D01*
X22032148Y70649630D01*
X21618222Y70649630D01*
X21618222Y71403933D01*
X21664404Y71450115D01*
G37*
G36*
X18485087Y71488218D02*
G01*
X18504681Y71483825D01*
X18523482Y71476600D01*
X18543820Y71463793D01*
X18568025Y71442648D01*
X18598429Y71410415D01*
X18637361Y71364340D01*
X18687152Y71301671D01*
X18750132Y71219653D01*
X18828631Y71115536D01*
X18924981Y70986565D01*
X19035717Y70837778D01*
X19294593Y70489704D01*
X19304000Y70954737D01*
X19307150Y71109989D01*
X19310640Y71231706D01*
X19316056Y71323962D01*
X19324982Y71390832D01*
X19339003Y71436389D01*
X19359702Y71464707D01*
X19388665Y71479862D01*
X19427476Y71485926D01*
X19477719Y71486974D01*
X19510963Y71486889D01*
X19558002Y71487564D01*
X19596933Y71487428D01*
X19628541Y71483243D01*
X19653614Y71471772D01*
X19672938Y71449775D01*
X19687300Y71414014D01*
X19697487Y71361250D01*
X19704284Y71288246D01*
X19708480Y71191762D01*
X19710860Y71068560D01*
X19712211Y70915403D01*
X19713320Y70729050D01*
X19713821Y70651774D01*
X19714733Y70451244D01*
X19714571Y70274523D01*
X19713376Y70124028D01*
X19711187Y70002175D01*
X19708042Y69911381D01*
X19703982Y69854061D01*
X19700536Y69834933D01*
X19666274Y69793895D01*
X19604807Y69765213D01*
X19525331Y69751701D01*
X19441208Y69755528D01*
X19413090Y69759781D01*
X19390065Y69765566D01*
X19368263Y69776794D01*
X19343812Y69797379D01*
X19312843Y69831232D01*
X19271485Y69882268D01*
X19215865Y69954397D01*
X19142115Y70051534D01*
X19121587Y70078607D01*
X19075537Y70139507D01*
X19013602Y70221674D01*
X18942450Y70316251D01*
X18868745Y70414381D01*
X18833416Y70461482D01*
X18769386Y70545918D01*
X18712405Y70619231D01*
X18666558Y70676309D01*
X18635930Y70712043D01*
X18625423Y70721753D01*
X18619770Y70705692D01*
X18615043Y70655517D01*
X18611388Y70574733D01*
X18608954Y70466848D01*
X18607888Y70335369D01*
X18607852Y70304009D01*
X18606769Y70134711D01*
X18603527Y70002007D01*
X18598141Y69906178D01*
X18590622Y69847501D01*
X18586043Y69832129D01*
X18546220Y69787169D01*
X18480869Y69759347D01*
X18398925Y69750694D01*
X18309325Y69763237D01*
X18297429Y69766576D01*
X18272658Y69774212D01*
X18252191Y69783251D01*
X18235619Y69797091D01*
X18222529Y69819129D01*
X18212512Y69852764D01*
X18205157Y69901395D01*
X18200052Y69968419D01*
X18196788Y70057235D01*
X18194953Y70171241D01*
X18194138Y70313836D01*
X18193930Y70488418D01*
X18193926Y70622919D01*
X18194029Y70815236D01*
X18194433Y70973467D01*
X18195282Y71101153D01*
X18196720Y71201839D01*
X18198891Y71279067D01*
X18201938Y71336380D01*
X18206005Y71377320D01*
X18211236Y71405431D01*
X18217776Y71424255D01*
X18225766Y71437335D01*
X18227044Y71438953D01*
X18274504Y71471733D01*
X18346449Y71491028D01*
X18431473Y71494661D01*
X18485087Y71488218D01*
G37*
G36*
X17401843Y71517998D02*
G01*
X17519192Y71490880D01*
X17629568Y71451152D01*
X17726329Y71402482D01*
X17802831Y71348540D01*
X17852430Y71292994D01*
X17866246Y71261519D01*
X17863066Y71210344D01*
X17837135Y71148258D01*
X17795787Y71085226D01*
X17746360Y71031214D01*
X17696188Y70996186D01*
X17665127Y70988297D01*
X17630063Y70996491D01*
X17574398Y71017905D01*
X17514463Y71045816D01*
X17387626Y71097027D01*
X17271049Y71115622D01*
X17157735Y71102426D01*
X17122225Y71092025D01*
X17002286Y71033988D01*
X16908118Y70949889D01*
X16842196Y70843223D01*
X16806997Y70717482D01*
X16801630Y70639914D01*
X16819622Y70508375D01*
X16871060Y70387990D01*
X16952141Y70284597D01*
X17059057Y70204034D01*
X17099074Y70183585D01*
X17165550Y70156624D01*
X17222421Y70144868D01*
X17289179Y70145180D01*
X17321367Y70147826D01*
X17409521Y70158052D01*
X17466443Y70172912D01*
X17498506Y70198347D01*
X17512084Y70240300D01*
X17513553Y70304710D01*
X17512723Y70326183D01*
X17507185Y70452074D01*
X17362241Y70461482D01*
X17290098Y70468657D01*
X17231768Y70479036D01*
X17198206Y70490574D01*
X17195730Y70492526D01*
X17183325Y70524084D01*
X17176364Y70579485D01*
X17174842Y70645353D01*
X17178757Y70708310D01*
X17188104Y70754979D01*
X17195800Y70769104D01*
X17223793Y70778442D01*
X17286925Y70785126D01*
X17385972Y70789205D01*
X17521710Y70790727D01*
X17538011Y70790741D01*
X17663288Y70791175D01*
X17758728Y70789490D01*
X17828369Y70781209D01*
X17876248Y70761854D01*
X17906402Y70726948D01*
X17922870Y70672011D01*
X17929688Y70592566D01*
X17930894Y70484136D01*
X17930519Y70355421D01*
X17930519Y70008936D01*
X17850556Y69929077D01*
X17772249Y69861283D01*
X17687680Y69811974D01*
X17585088Y69775282D01*
X17502105Y69755191D01*
X17328780Y69732112D01*
X17162554Y69736279D01*
X17048191Y69757479D01*
X16883572Y69820825D01*
X16734491Y69916626D01*
X16604911Y70041530D01*
X16498791Y70192188D01*
X16469699Y70246776D01*
X16397111Y70393615D01*
X16397111Y70640139D01*
X16397437Y70741205D01*
X16399485Y70813911D01*
X16404861Y70867528D01*
X16415168Y70911325D01*
X16432013Y70954572D01*
X16457001Y71006539D01*
X16462441Y71017443D01*
X16557240Y71168465D01*
X16676914Y71296628D01*
X16816514Y71399293D01*
X16971093Y71473825D01*
X17135702Y71517588D01*
X17305395Y71527944D01*
X17401843Y71517998D01*
G37*
G36*
X15959866Y71493195D02*
G01*
X16029835Y71472988D01*
X16055907Y71457301D01*
X16105482Y71418306D01*
X16105482Y70637620D01*
X16105015Y70430640D01*
X16103646Y70250593D01*
X16101416Y70099357D01*
X16098371Y69978810D01*
X16094553Y69890828D01*
X16090008Y69837288D01*
X16086445Y69821364D01*
X16054788Y69792855D01*
X15999824Y69767819D01*
X15935834Y69751545D01*
X15889111Y69748321D01*
X15844344Y69754664D01*
X15790978Y69767402D01*
X15767067Y69775793D01*
X15747228Y69788088D01*
X15731115Y69807572D01*
X15718381Y69837529D01*
X15708680Y69881242D01*
X15701664Y69941996D01*
X15696987Y70023075D01*
X15694302Y70127762D01*
X15693263Y70259341D01*
X15693522Y70421098D01*
X15694734Y70616315D01*
X15695176Y70674825D01*
X15700963Y71424391D01*
X15745381Y71460344D01*
X15802699Y71487019D01*
X15879174Y71497921D01*
X15959866Y71493195D01*
G37*
G36*
X10762074Y70790741D02*
G01*
X10752667Y70781334D01*
X10743259Y70790741D01*
X10752667Y70800148D01*
X10762074Y70790741D01*
G37*
G36*
X20850255Y71496194D02*
G01*
X20978969Y71495713D01*
X21078459Y71494594D01*
X21152928Y71492580D01*
X21206577Y71489409D01*
X21243610Y71484823D01*
X21268230Y71478564D01*
X21284638Y71470372D01*
X21297038Y71459987D01*
X21298371Y71458667D01*
X21326229Y71408624D01*
X21340139Y71337313D01*
X21340184Y71258382D01*
X21326447Y71185479D01*
X21299009Y71132252D01*
X21296376Y71129408D01*
X21282395Y71117284D01*
X21263781Y71107964D01*
X21235612Y71100994D01*
X21192963Y71095918D01*
X21130914Y71092282D01*
X21044541Y71089631D01*
X20928921Y71087510D01*
X20827515Y71086091D01*
X20395259Y71080404D01*
X20395259Y70840367D01*
X20694379Y70834369D01*
X20822524Y70831137D01*
X20917881Y70825571D01*
X20985291Y70815075D01*
X21029595Y70797052D01*
X21055634Y70768905D01*
X21068249Y70728038D01*
X21072280Y70671854D01*
X21072593Y70631495D01*
X21071882Y70563514D01*
X21066443Y70513188D01*
X21051319Y70477663D01*
X21021551Y70454084D01*
X20972183Y70439596D01*
X20898255Y70431345D01*
X20794811Y70426477D01*
X20711974Y70423852D01*
X20404667Y70414445D01*
X20404667Y70169852D01*
X20843660Y70160445D01*
X20983952Y70157244D01*
X21091376Y70154115D01*
X21170690Y70150587D01*
X21226649Y70146192D01*
X21264013Y70140461D01*
X21287538Y70132924D01*
X21301982Y70123111D01*
X21309327Y70114515D01*
X21331285Y70061039D01*
X21340352Y69988197D01*
X21337085Y69909927D01*
X21322043Y69840169D01*
X21296473Y69793556D01*
X21284309Y69782783D01*
X21268384Y69774254D01*
X21244446Y69767682D01*
X21208244Y69762780D01*
X21155527Y69759259D01*
X21082042Y69756833D01*
X20983538Y69755215D01*
X20855765Y69754116D01*
X20700506Y69753279D01*
X20557371Y69752883D01*
X20425049Y69753053D01*
X20308615Y69753740D01*
X20213144Y69754896D01*
X20143712Y69756473D01*
X20105393Y69758420D01*
X20100891Y69759033D01*
X20057475Y69779280D01*
X20025632Y69805967D01*
X20016751Y69817831D01*
X20009458Y69834353D01*
X20003560Y69859191D01*
X19998867Y69896003D01*
X19995185Y69948447D01*
X19992323Y70020180D01*
X19990089Y70114861D01*
X19988290Y70236148D01*
X19986735Y70387698D01*
X19985231Y70573170D01*
X19985210Y70575945D01*
X19983918Y70780458D01*
X19983613Y70950640D01*
X19984598Y71089785D01*
X19987175Y71201187D01*
X19991647Y71288140D01*
X19998317Y71353935D01*
X20007488Y71401868D01*
X20019462Y71435230D01*
X20034543Y71457316D01*
X20053033Y71471420D01*
X20068173Y71478308D01*
X20098713Y71482900D01*
X20161958Y71487042D01*
X20252983Y71490591D01*
X20366862Y71493402D01*
X20498673Y71495334D01*
X20643491Y71496244D01*
X20688114Y71496297D01*
X20850255Y71496194D01*
G37*
G36*
X4865037Y70355307D02*
G01*
X4859557Y70480756D01*
X4860736Y70799358D01*
X4887349Y71097238D01*
X4907551Y71204667D01*
X6604000Y71204667D01*
X6613408Y71195260D01*
X6622815Y71204667D01*
X6613408Y71214074D01*
X6604000Y71204667D01*
X4907551Y71204667D01*
X4941056Y71382843D01*
X5023520Y71664622D01*
X5136400Y71951021D01*
X5158197Y71999601D01*
X5247201Y72171415D01*
X5360629Y72354179D01*
X5491334Y72538366D01*
X5632170Y72714450D01*
X5775990Y72872903D01*
X5904946Y72995047D01*
X6006727Y73082229D01*
X6088066Y73149897D01*
X6156513Y73203685D01*
X6219619Y73249227D01*
X6284934Y73292156D01*
X6360010Y73338106D01*
X6363438Y73340148D01*
X6383523Y73352112D01*
X6547403Y73445064D01*
X6697692Y73520021D01*
X6849168Y73583707D01*
X7016611Y73642849D01*
X7036741Y73649399D01*
X7149062Y73685595D01*
X7233926Y73712437D01*
X7299675Y73732170D01*
X7354649Y73747038D01*
X7407191Y73759285D01*
X7465640Y73771156D01*
X7538338Y73784895D01*
X7544741Y73786090D01*
X7561682Y73788997D01*
X7581184Y73791733D01*
X7604393Y73794304D01*
X7632457Y73796717D01*
X7666525Y73798978D01*
X7707743Y73801093D01*
X7757260Y73803067D01*
X7816224Y73804908D01*
X7885781Y73806620D01*
X7967080Y73808211D01*
X8061269Y73809687D01*
X8169495Y73811053D01*
X8292905Y73812315D01*
X8432649Y73813481D01*
X8589872Y73814555D01*
X8765724Y73815545D01*
X8961351Y73816455D01*
X9177902Y73817293D01*
X9416524Y73818064D01*
X9678365Y73818775D01*
X9964573Y73819432D01*
X10276295Y73820040D01*
X10614679Y73820606D01*
X10980873Y73821136D01*
X11376024Y73821637D01*
X11801281Y73822113D01*
X12257790Y73822572D01*
X12746700Y73823020D01*
X13269159Y73823462D01*
X13826313Y73823905D01*
X14419312Y73824355D01*
X14764926Y73824610D01*
X15367480Y73825006D01*
X15948376Y73825295D01*
X16506813Y73825479D01*
X17041991Y73825560D01*
X17553112Y73825538D01*
X18039373Y73825415D01*
X18499977Y73825192D01*
X18934122Y73824871D01*
X19341009Y73824453D01*
X19719838Y73823940D01*
X20069809Y73823333D01*
X20390123Y73822632D01*
X20679978Y73821841D01*
X20938576Y73820960D01*
X21165116Y73819990D01*
X21358798Y73818932D01*
X21518823Y73817789D01*
X21644390Y73816562D01*
X21734700Y73815251D01*
X21788953Y73813859D01*
X21806371Y73812439D01*
X21823472Y73801222D01*
X21868627Y73787572D01*
X21932611Y73774193D01*
X21942778Y73772457D01*
X22293307Y73696126D01*
X22626942Y73586773D01*
X22942317Y73445282D01*
X23238065Y73272543D01*
X23512820Y73069440D01*
X23765216Y72836861D01*
X23993889Y72575694D01*
X24173616Y72324148D01*
X24287566Y72128240D01*
X24393917Y71907004D01*
X24487819Y71672645D01*
X24564422Y71437365D01*
X24618874Y71213367D01*
X24622322Y71195260D01*
X24637352Y71086186D01*
X24648269Y70948836D01*
X24655070Y70792236D01*
X24657752Y70625416D01*
X24656312Y70457402D01*
X24650746Y70297223D01*
X24641053Y70153907D01*
X24627230Y70036482D01*
X24622703Y70009926D01*
X24552878Y69722081D01*
X24451099Y69430439D01*
X24320929Y69143636D01*
X24165930Y68870307D01*
X24128994Y68813055D01*
X24044698Y68695863D01*
X23940458Y68567218D01*
X23823605Y68434953D01*
X23701470Y68306904D01*
X23581387Y68190906D01*
X23470686Y68094794D01*
X23421194Y68056679D01*
X23161409Y67885803D01*
X22888096Y67740732D01*
X22607367Y67624002D01*
X22325336Y67538152D01*
X22048116Y67485719D01*
X22044759Y67485293D01*
X21968214Y67473980D01*
X21913551Y67462586D01*
X21886725Y67452528D01*
X21886620Y67447629D01*
X21869440Y67446773D01*
X21816205Y67445948D01*
X21728494Y67445153D01*
X21607883Y67444389D01*
X21455946Y67443657D01*
X21274262Y67442956D01*
X21064406Y67442287D01*
X20827954Y67441650D01*
X20566483Y67441046D01*
X20281569Y67440474D01*
X19974788Y67439935D01*
X19647717Y67439430D01*
X19301932Y67438957D01*
X18939009Y67438519D01*
X18560525Y67438115D01*
X18168055Y67437745D01*
X17763176Y67437410D01*
X17347465Y67437109D01*
X16922498Y67436844D01*
X16489850Y67436614D01*
X16051099Y67436420D01*
X15607821Y67436261D01*
X15161591Y67436139D01*
X14713986Y67436054D01*
X14266583Y67436005D01*
X13820958Y67435994D01*
X13378686Y67436020D01*
X12941345Y67436083D01*
X12510511Y67436184D01*
X12087760Y67436324D01*
X11674667Y67436502D01*
X11272811Y67436719D01*
X10883766Y67436974D01*
X10509109Y67437269D01*
X10150417Y67437604D01*
X9809265Y67437978D01*
X9487230Y67438393D01*
X9185889Y67438848D01*
X8906817Y67439343D01*
X8651591Y67439880D01*
X8421787Y67440457D01*
X8218982Y67441076D01*
X8044751Y67441737D01*
X7900672Y67442440D01*
X7788320Y67443186D01*
X7709271Y67443973D01*
X7665103Y67444804D01*
X7657630Y67445143D01*
X7502061Y67463849D01*
X7326428Y67496956D01*
X7141799Y67541469D01*
X6959242Y67594395D01*
X6789826Y67652739D01*
X6644618Y67713506D01*
X6618129Y67726349D01*
X6311450Y67899302D01*
X6281182Y67920845D01*
X13490222Y67920845D01*
X17756482Y67926251D01*
X22022741Y67931657D01*
X22220296Y67981189D01*
X22526823Y68076761D01*
X22814691Y68204262D01*
X23082165Y68362012D01*
X23327508Y68548329D01*
X23548985Y68761533D01*
X23744858Y68999942D01*
X23913393Y69261877D01*
X24052853Y69545656D01*
X24161502Y69849598D01*
X24165982Y69864907D01*
X24234576Y70168037D01*
X24266927Y70474955D01*
X24263744Y70782339D01*
X24225737Y71086869D01*
X24153615Y71385222D01*
X24048087Y71674077D01*
X23909862Y71950112D01*
X23739649Y72210005D01*
X23637811Y72338761D01*
X23420577Y72567776D01*
X23177649Y72771329D01*
X22912860Y72947285D01*
X22630044Y73093508D01*
X22333034Y73207864D01*
X22025665Y73288216D01*
X21891037Y73311815D01*
X21865661Y73315039D01*
X21833417Y73318013D01*
X21792819Y73320747D01*
X21742384Y73323251D01*
X21680628Y73325534D01*
X21606066Y73327606D01*
X21517213Y73329477D01*
X21412587Y73331157D01*
X21290701Y73332655D01*
X21150073Y73333981D01*
X20989218Y73335145D01*
X20806652Y73336156D01*
X20600890Y73337025D01*
X20370448Y73337762D01*
X20113842Y73338375D01*
X19829588Y73338874D01*
X19516201Y73339271D01*
X19172197Y73339573D01*
X18796092Y73339791D01*
X18386401Y73339935D01*
X17941641Y73340015D01*
X17596556Y73340038D01*
X13490222Y73340148D01*
X13490222Y67920845D01*
X6281182Y67920845D01*
X6032048Y68098164D01*
X5780029Y68322811D01*
X5555499Y68573121D01*
X5358563Y68848968D01*
X5189326Y69150232D01*
X5047893Y69476787D01*
X4996105Y69623579D01*
X4945399Y69795349D01*
X4907737Y69967747D01*
X4888223Y70104000D01*
X6528741Y70104000D01*
X6534842Y70073402D01*
X6543277Y70066371D01*
X6560258Y70051296D01*
X6585427Y70013500D01*
X6595018Y69996271D01*
X6630089Y69939312D01*
X6668785Y69889925D01*
X6703055Y69857528D01*
X6720085Y69850000D01*
X6741587Y69838821D01*
X6776758Y69811663D01*
X6779623Y69809192D01*
X6814343Y69784481D01*
X6836466Y69778611D01*
X6837575Y69779402D01*
X6847637Y69775771D01*
X6848593Y69767359D01*
X6859755Y69753280D01*
X6867647Y69756074D01*
X6895800Y69756308D01*
X6939582Y69741356D01*
X6945797Y69738370D01*
X7003321Y69717534D01*
X7058446Y69708889D01*
X7096810Y69703169D01*
X7112000Y69690074D01*
X7128540Y69677638D01*
X7169210Y69671422D01*
X7177852Y69671260D01*
X7221378Y69675985D01*
X7243135Y69687605D01*
X7243704Y69690074D01*
X7259730Y69704483D01*
X7288375Y69708889D01*
X7334760Y69715154D01*
X7394092Y69730701D01*
X7408971Y69735677D01*
X7457940Y69749767D01*
X7490641Y69753302D01*
X7496003Y69751356D01*
X7506146Y69754896D01*
X7507111Y69763308D01*
X7518148Y69777473D01*
X7525926Y69774741D01*
X7543264Y69776233D01*
X7544741Y69783038D01*
X7559962Y69800709D01*
X7572963Y69802963D01*
X7598001Y69813123D01*
X7601185Y69821778D01*
X7616347Y69838646D01*
X7628341Y69840593D01*
X7659400Y69854696D01*
X7681769Y69878103D01*
X7706237Y69901773D01*
X7721460Y69902195D01*
X7727202Y69904661D01*
X7722524Y69920971D01*
X7724519Y69953618D01*
X7740236Y69964702D01*
X7760810Y69982395D01*
X7759893Y69993083D01*
X7763602Y70008773D01*
X7770519Y70009926D01*
X7782788Y70021387D01*
X7779926Y70028741D01*
X7782042Y70046051D01*
X7789334Y70047556D01*
X7801603Y70059017D01*
X7798741Y70066371D01*
X7796596Y70097515D01*
X7801156Y70107908D01*
X7817022Y70155293D01*
X7826092Y70226602D01*
X7828139Y70308709D01*
X7822938Y70388486D01*
X7810261Y70452806D01*
X7807261Y70461482D01*
X7805920Y70485000D01*
X7793647Y70498418D01*
X7787321Y70499111D01*
X7774944Y70512873D01*
X7777698Y70528311D01*
X7779188Y70547757D01*
X7767106Y70544039D01*
X7753280Y70543402D01*
X7757698Y70562854D01*
X7761066Y70584922D01*
X7754070Y70585240D01*
X7733212Y70591994D01*
X7698404Y70620357D01*
X7678570Y70640708D01*
X7631327Y70686938D01*
X7593867Y70707330D01*
X7558852Y70708302D01*
X7545185Y70720280D01*
X7544741Y70724889D01*
X7528983Y70740176D01*
X7507111Y70743704D01*
X7476527Y70750853D01*
X7469482Y70760757D01*
X7454498Y70770436D01*
X7431852Y70767970D01*
X7401877Y70767441D01*
X7394222Y70776530D01*
X7378517Y70786905D01*
X7344389Y70785404D01*
X7309747Y70783437D01*
X7307747Y70796792D01*
X8074657Y70796792D01*
X8075257Y70633832D01*
X8075638Y70573277D01*
X8077031Y70383847D01*
X8078432Y70228450D01*
X8080033Y70103486D01*
X8082029Y70005361D01*
X8084611Y69930476D01*
X8087973Y69875234D01*
X8092308Y69836038D01*
X8097808Y69809292D01*
X8104668Y69791397D01*
X8113079Y69778756D01*
X8118593Y69772575D01*
X8130439Y69761341D01*
X8145141Y69752419D01*
X8166896Y69745514D01*
X8199905Y69740332D01*
X8248364Y69736579D01*
X8316473Y69733959D01*
X8408431Y69732179D01*
X8528436Y69730943D01*
X8680686Y69729957D01*
X8730074Y69729684D01*
X8876215Y69729285D01*
X9012585Y69729666D01*
X9133969Y69730756D01*
X9235153Y69732479D01*
X9310923Y69734763D01*
X9356066Y69737535D01*
X9363548Y69738584D01*
X9401982Y69752555D01*
X9427501Y69780509D01*
X9442986Y69829257D01*
X9451315Y69905607D01*
X9453517Y69951342D01*
X9452485Y70018176D01*
X9440646Y70062610D01*
X9414910Y70098426D01*
X9383084Y70129281D01*
X9362622Y70142873D01*
X9361740Y70142899D01*
X9340605Y70142533D01*
X9287333Y70142209D01*
X9207415Y70141942D01*
X9106343Y70141748D01*
X8989611Y70141644D01*
X8927630Y70141630D01*
X8504296Y70141630D01*
X8504262Y70259222D01*
X8504228Y70376815D01*
X8743275Y70370980D01*
X8871184Y70370047D01*
X8962027Y70374408D01*
X9015995Y70384074D01*
X9024262Y70387591D01*
X9065735Y70401748D01*
X9090990Y70401367D01*
X9117738Y70405893D01*
X9147634Y70426535D01*
X9167896Y70451943D01*
X9167519Y70469321D01*
X9169962Y70479842D01*
X9174658Y70480297D01*
X9183718Y70497354D01*
X9188288Y70541778D01*
X9187955Y70588482D01*
X9183290Y70678232D01*
X9177798Y70736573D01*
X9169869Y70769719D01*
X9157893Y70783883D01*
X9140259Y70785277D01*
X9137084Y70784779D01*
X9113043Y70786379D01*
X9112128Y70794186D01*
X9105962Y70796226D01*
X9709839Y70796226D01*
X9709917Y70605025D01*
X9709924Y70593592D01*
X9710470Y70396873D01*
X9711797Y70224334D01*
X9713853Y70078223D01*
X9716586Y69960784D01*
X9719943Y69874265D01*
X9723874Y69820910D01*
X9728261Y69802963D01*
X9741906Y69789111D01*
X9741371Y69782019D01*
X9753596Y69763606D01*
X9782561Y69753371D01*
X9821463Y69743901D01*
X9838149Y69735975D01*
X9858671Y69733648D01*
X9912193Y69731666D01*
X9994085Y69730085D01*
X10099720Y69728965D01*
X10224469Y69728363D01*
X10363702Y69728338D01*
X10430137Y69728531D01*
X10599694Y69729475D01*
X10735298Y69730972D01*
X10840624Y69733193D01*
X10919347Y69736312D01*
X10975141Y69740502D01*
X11011683Y69745935D01*
X11032646Y69752784D01*
X11038789Y69757138D01*
X11068102Y69807992D01*
X11084581Y69880524D01*
X11088042Y69961691D01*
X11078298Y70038451D01*
X11055166Y70097763D01*
X11043832Y70112027D01*
X11017552Y70119429D01*
X10955748Y70125887D01*
X10860516Y70131279D01*
X10733955Y70135484D01*
X10591836Y70138198D01*
X10160000Y70144174D01*
X10160000Y70367408D01*
X10399889Y70369636D01*
X10491536Y70370311D01*
X10569337Y70370554D01*
X10625672Y70370364D01*
X10652925Y70369741D01*
X10653889Y70369636D01*
X10667303Y70381913D01*
X10668000Y70388262D01*
X10683361Y70400836D01*
X10712884Y70397851D01*
X10761203Y70399939D01*
X10781040Y70414627D01*
X10795383Y70437375D01*
X10793435Y70442667D01*
X10792419Y70458362D01*
X10802520Y70497971D01*
X10809808Y70519902D01*
X10825437Y70586799D01*
X10825155Y70612000D01*
X11335926Y70612000D01*
X11336295Y70445754D01*
X11337349Y70291804D01*
X11339008Y70154083D01*
X11341192Y70036526D01*
X11343821Y69943067D01*
X11346814Y69877639D01*
X11350093Y69844176D01*
X11351605Y69840593D01*
X11361493Y69826972D01*
X11359837Y69818250D01*
X11365418Y69788238D01*
X11381787Y69764306D01*
X11396536Y69753105D01*
X11420488Y69744785D01*
X11458895Y69738894D01*
X11517014Y69734981D01*
X11600100Y69732593D01*
X11713407Y69731279D01*
X11769717Y69730946D01*
X11919013Y69731302D01*
X12035229Y69734177D01*
X12122847Y69739819D01*
X12186348Y69748478D01*
X12216569Y69755768D01*
X12267260Y69769403D01*
X12299204Y69774878D01*
X12304889Y69773459D01*
X12318777Y69773694D01*
X12353219Y69788659D01*
X12397378Y69812332D01*
X12440418Y69838688D01*
X12471504Y69861704D01*
X12479424Y69870482D01*
X12505693Y69887531D01*
X12518743Y69885992D01*
X12548749Y69891303D01*
X12569986Y69909200D01*
X12586692Y69932170D01*
X12577834Y69932215D01*
X12568296Y69927604D01*
X12565131Y69930990D01*
X12585455Y69954236D01*
X12617277Y69985141D01*
X12662444Y70030974D01*
X12695581Y70071597D01*
X12706057Y70089889D01*
X12723870Y70117646D01*
X12735000Y70122815D01*
X12752009Y70138767D01*
X12764171Y70169852D01*
X12779664Y70205101D01*
X12795543Y70216889D01*
X12806446Y70228437D01*
X12803482Y70235704D01*
X12804638Y70253056D01*
X12811188Y70254519D01*
X12822492Y70268265D01*
X12819693Y70282741D01*
X12819698Y70306948D01*
X12827929Y70310963D01*
X12838790Y70326030D01*
X12836386Y70351535D01*
X12833850Y70379672D01*
X12848309Y70378181D01*
X12862593Y70377700D01*
X12859993Y70407287D01*
X12858641Y70412868D01*
X12854953Y70448349D01*
X12862838Y70461482D01*
X12870453Y70478807D01*
X12876187Y70524850D01*
X12879071Y70590707D01*
X12879236Y70612000D01*
X12877348Y70681898D01*
X12872332Y70734534D01*
X12865158Y70761006D01*
X12862838Y70762519D01*
X12854751Y70777986D01*
X12858641Y70811132D01*
X12863138Y70844469D01*
X12850881Y70847305D01*
X12848309Y70845820D01*
X12833419Y70845299D01*
X12836393Y70872492D01*
X12838402Y70900497D01*
X12827934Y70901300D01*
X12817011Y70905013D01*
X12821549Y70929496D01*
X12824120Y70962040D01*
X12813047Y70969482D01*
X12800631Y70980934D01*
X12803482Y70988297D01*
X12801762Y71005624D01*
X12794781Y71007111D01*
X12773522Y71022526D01*
X12751568Y71058852D01*
X12729574Y71092606D01*
X12690335Y71139746D01*
X12641516Y71192458D01*
X12590782Y71242927D01*
X12545797Y71283341D01*
X12514228Y71305885D01*
X12507025Y71308148D01*
X12487912Y71323075D01*
X12481068Y71336263D01*
X12463903Y71355734D01*
X12454592Y71354682D01*
X12434031Y71360497D01*
X12419506Y71378308D01*
X12403989Y71398957D01*
X12399535Y71397085D01*
X12385811Y71395699D01*
X12353421Y71412388D01*
X12351926Y71413360D01*
X12319207Y71430868D01*
X12304913Y71430733D01*
X12304889Y71430305D01*
X12293413Y71427453D01*
X12281371Y71434984D01*
X12270629Y71442974D01*
X12258033Y71449156D01*
X12238750Y71453885D01*
X12207944Y71457518D01*
X12160784Y71460411D01*
X12092434Y71462922D01*
X11998061Y71465406D01*
X11872832Y71468219D01*
X11813121Y71469515D01*
X11666702Y71472163D01*
X11554264Y71472799D01*
X11472201Y71471164D01*
X11416903Y71466997D01*
X11384766Y71460036D01*
X11372180Y71450024D01*
X11374774Y71437881D01*
X11371065Y71422190D01*
X11364148Y71421037D01*
X11351879Y71409576D01*
X11354741Y71402222D01*
X11355976Y71384769D01*
X11351148Y71383408D01*
X11347867Y71365249D01*
X11344829Y71313394D01*
X11342112Y71231778D01*
X11339792Y71124335D01*
X11337948Y70994998D01*
X11336657Y70847700D01*
X11335997Y70686377D01*
X11335926Y70612000D01*
X10825155Y70612000D01*
X10824804Y70643396D01*
X10823971Y70646902D01*
X10815759Y70697081D01*
X10815955Y70730011D01*
X10809800Y70755578D01*
X10797109Y70758233D01*
X10775027Y70768040D01*
X10772337Y70778372D01*
X10764930Y70787975D01*
X10740389Y70794749D01*
X10694105Y70799029D01*
X10621471Y70801152D01*
X10517875Y70801455D01*
X10461037Y70801097D01*
X10150593Y70798560D01*
X10156902Y70921651D01*
X10163211Y71044741D01*
X10541369Y71044741D01*
X10672648Y71045073D01*
X10772233Y71046394D01*
X10846054Y71049191D01*
X10900043Y71053950D01*
X10940132Y71061158D01*
X10972253Y71071302D01*
X10996695Y71082097D01*
X11040468Y71106182D01*
X11066369Y71132732D01*
X11079468Y71172194D01*
X11084836Y71235017D01*
X11085866Y71265815D01*
X11079634Y71361771D01*
X11055296Y71428506D01*
X11032658Y71453126D01*
X11011668Y71459970D01*
X10967543Y71465458D01*
X10897692Y71469684D01*
X10799522Y71472739D01*
X10670442Y71474716D01*
X10507858Y71475709D01*
X10395454Y71475869D01*
X9789142Y71475931D01*
X9749271Y71430076D01*
X9739534Y71418029D01*
X9731530Y71404037D01*
X9725091Y71384554D01*
X9720052Y71356028D01*
X9716244Y71314910D01*
X9713501Y71257652D01*
X9711656Y71180704D01*
X9710542Y71080517D01*
X9709992Y70953541D01*
X9709839Y70796226D01*
X9105962Y70796226D01*
X9097645Y70798978D01*
X9051510Y70802487D01*
X8979684Y70804516D01*
X8888129Y70804871D01*
X8812979Y70803974D01*
X8504296Y70798393D01*
X8504296Y71041932D01*
X8890453Y71043974D01*
X9010237Y71045467D01*
X9119724Y71048445D01*
X9212393Y71052600D01*
X9281721Y71057629D01*
X9321183Y71063224D01*
X9324772Y71064328D01*
X9366235Y71074378D01*
X9390207Y71071966D01*
X9409198Y71077997D01*
X9427246Y71114447D01*
X9442143Y71174123D01*
X9451681Y71249837D01*
X9453292Y71277485D01*
X9453357Y71346113D01*
X9444458Y71390788D01*
X9423498Y71424726D01*
X9417154Y71431857D01*
X9376446Y71475781D01*
X8771038Y71475845D01*
X8580870Y71475274D01*
X8425771Y71473526D01*
X8306278Y71470620D01*
X8222925Y71466571D01*
X8176248Y71461397D01*
X8165630Y71456771D01*
X8154242Y71445885D01*
X8148115Y71448456D01*
X8125567Y71444389D01*
X8104119Y71418442D01*
X8098441Y71402222D01*
X8090005Y71378878D01*
X8083421Y71363517D01*
X8080694Y71338827D01*
X8078419Y71280676D01*
X8076636Y71193231D01*
X8075388Y71080658D01*
X8074714Y70947122D01*
X8074657Y70796792D01*
X7307747Y70796792D01*
X7307695Y70797137D01*
X7305507Y70810030D01*
X7271866Y70808452D01*
X7260528Y70806336D01*
X7220859Y70801214D01*
X7211115Y70809538D01*
X7215362Y70818770D01*
X7218342Y70834559D01*
X7193226Y70833686D01*
X7180658Y70830756D01*
X7142055Y70827437D01*
X7130815Y70838530D01*
X7119309Y70850101D01*
X7112000Y70847185D01*
X7094878Y70850132D01*
X7093185Y70858618D01*
X7086011Y70872445D01*
X7080984Y70869478D01*
X7061619Y70872969D01*
X7033947Y70897444D01*
X7002408Y70956409D01*
X7003549Y71015057D01*
X7035433Y71063857D01*
X7072233Y71085983D01*
X7143561Y71104559D01*
X7214617Y71107293D01*
X7271171Y71094248D01*
X7286037Y71085052D01*
X7311220Y71069600D01*
X7318963Y71072963D01*
X7330513Y71073525D01*
X7356149Y71054550D01*
X7380352Y71024434D01*
X7383394Y71004812D01*
X7388800Y70996931D01*
X7405739Y71001117D01*
X7427620Y71003996D01*
X7426788Y70995325D01*
X7435531Y70983676D01*
X7473545Y70978156D01*
X7487678Y70978016D01*
X7530670Y70982444D01*
X7549769Y70992425D01*
X7549186Y70996198D01*
X7553934Y71005101D01*
X7570854Y71001117D01*
X7592903Y70997776D01*
X7593199Y71004812D01*
X7597396Y71026292D01*
X7619159Y71053047D01*
X7645353Y71072068D01*
X7661378Y71072351D01*
X7671390Y71081166D01*
X7682232Y71116186D01*
X7683149Y71120594D01*
X7695748Y71157447D01*
X7710773Y71168895D01*
X7712099Y71168258D01*
X7721885Y71174161D01*
X7719533Y71195234D01*
X7720257Y71225893D01*
X7731880Y71232889D01*
X7732890Y71244804D01*
X7711894Y71275460D01*
X7687200Y71303445D01*
X7649125Y71346307D01*
X7624827Y71378827D01*
X7620163Y71389222D01*
X7608592Y71396755D01*
X7604035Y71394576D01*
X7580504Y71398898D01*
X7547347Y71422648D01*
X7512788Y71446223D01*
X7488053Y71449109D01*
X7470957Y71451936D01*
X7469482Y71459570D01*
X7455999Y71473514D01*
X7443099Y71471384D01*
X7412980Y71468622D01*
X7405499Y71472476D01*
X7372245Y71486550D01*
X7311813Y71496219D01*
X7234383Y71501474D01*
X7150134Y71502305D01*
X7069243Y71498703D01*
X7001891Y71490660D01*
X6958255Y71478166D01*
X6950618Y71472890D01*
X6925169Y71468156D01*
X6912605Y71471384D01*
X6889614Y71468995D01*
X6886222Y71459570D01*
X6874814Y71446464D01*
X6867408Y71449260D01*
X6850286Y71446313D01*
X6848593Y71437827D01*
X6841662Y71423734D01*
X6836850Y71426509D01*
X6818098Y71422425D01*
X6790439Y71396719D01*
X6765979Y71372533D01*
X6755161Y71371916D01*
X6755145Y71372213D01*
X6745817Y71378903D01*
X6725091Y71363387D01*
X6701537Y71335351D01*
X6683724Y71304486D01*
X6679259Y71286418D01*
X6666179Y71257559D01*
X6649927Y71251704D01*
X6629917Y71243341D01*
X6631173Y71234587D01*
X6634991Y71207531D01*
X6625628Y71178659D01*
X6609745Y71165114D01*
X6604747Y71166576D01*
X6597468Y71157637D01*
X6600039Y71126042D01*
X6601646Y71093819D01*
X6592617Y71087185D01*
X6584002Y71075686D01*
X6577931Y71035456D01*
X6575778Y70978889D01*
X6578165Y70919635D01*
X6584404Y70880695D01*
X6592617Y70870593D01*
X6601781Y70862918D01*
X6599930Y70831167D01*
X6597166Y70794858D01*
X6603589Y70781334D01*
X6620272Y70766162D01*
X6639020Y70731848D01*
X6652272Y70695197D01*
X6652465Y70673010D01*
X6652380Y70672923D01*
X6659401Y70657473D01*
X6685515Y70630963D01*
X6718827Y70603683D01*
X6747446Y70585924D01*
X6755403Y70583778D01*
X6775810Y70571959D01*
X6799540Y70550852D01*
X6835358Y70525155D01*
X6859344Y70517926D01*
X6883512Y70507653D01*
X6886222Y70499702D01*
X6900014Y70489350D01*
X6914445Y70492307D01*
X6938651Y70492302D01*
X6942667Y70484071D01*
X6957734Y70473211D01*
X6983239Y70475614D01*
X7011478Y70477654D01*
X7011435Y70466200D01*
X7014539Y70453698D01*
X7039657Y70456793D01*
X7067916Y70458841D01*
X7067879Y70447385D01*
X7070983Y70434883D01*
X7096101Y70437978D01*
X7124120Y70440801D01*
X7122070Y70424924D01*
X7121996Y70424804D01*
X7120109Y70410044D01*
X7145934Y70409963D01*
X7166091Y70413928D01*
X7209801Y70418089D01*
X7224889Y70407123D01*
X7238231Y70394380D01*
X7248408Y70396258D01*
X7278960Y70393103D01*
X7322957Y70373755D01*
X7329455Y70369922D01*
X7368108Y70340027D01*
X7383529Y70303905D01*
X7385133Y70260933D01*
X7368345Y70183383D01*
X7341715Y70145567D01*
X7313306Y70120340D01*
X7300243Y70115015D01*
X7300148Y70115711D01*
X7288362Y70117019D01*
X7276630Y70109798D01*
X7245714Y70100751D01*
X7195404Y70096803D01*
X7143658Y70098503D01*
X7112000Y70104780D01*
X7088482Y70106228D01*
X7074815Y70118206D01*
X7074371Y70122815D01*
X7063994Y70137663D01*
X7060259Y70137150D01*
X7040378Y70146951D01*
X7003812Y70176934D01*
X6971516Y70207706D01*
X6928086Y70248819D01*
X6894430Y70276073D01*
X6881460Y70282741D01*
X6857389Y70295872D01*
X6852610Y70301556D01*
X6823528Y70315831D01*
X6775862Y70319875D01*
X6727076Y70314244D01*
X6694637Y70299494D01*
X6692214Y70296456D01*
X6669179Y70281149D01*
X6659253Y70283477D01*
X6640842Y70276400D01*
X6623062Y70245761D01*
X6599609Y70205666D01*
X6576168Y70186213D01*
X6556845Y70168508D01*
X6558182Y70158473D01*
X6554749Y70142612D01*
X6548666Y70141630D01*
X6532481Y70125882D01*
X6528741Y70104000D01*
X4888223Y70104000D01*
X4881493Y70150994D01*
X4865037Y70355307D01*
G37*
G36*
X12070700Y71029080D02*
G01*
X12107177Y71024720D01*
X12113644Y71021461D01*
X12131791Y71014928D01*
X12136717Y71017236D01*
X12164016Y71016862D01*
X12202520Y71001494D01*
X12235368Y70979573D01*
X12246256Y70962400D01*
X12261071Y70942633D01*
X12289593Y70924509D01*
X12326728Y70893498D01*
X12360980Y70845378D01*
X12365036Y70837516D01*
X12390011Y70789834D01*
X12410707Y70756267D01*
X12413505Y70752704D01*
X12423988Y70719637D01*
X12422346Y70710371D01*
X12425281Y70689299D01*
X12431509Y70687260D01*
X12442445Y70670424D01*
X12450682Y70627834D01*
X12452759Y70602593D01*
X12451349Y70546633D01*
X12440857Y70519512D01*
X12436192Y70517926D01*
X12423753Y70503352D01*
X12427185Y70480297D01*
X12428375Y70449060D01*
X12415910Y70442667D01*
X12401703Y70435742D01*
X12404492Y70430866D01*
X12402217Y70409958D01*
X12382614Y70372263D01*
X12353308Y70328532D01*
X12321927Y70289516D01*
X12296097Y70265964D01*
X12286060Y70263935D01*
X12264862Y70258526D01*
X12250173Y70240803D01*
X12234656Y70220155D01*
X12230202Y70222027D01*
X12216564Y70223747D01*
X12185795Y70207850D01*
X12149976Y70190948D01*
X12129350Y70191737D01*
X12117751Y70189971D01*
X12116741Y70182395D01*
X12101319Y70170904D01*
X12053577Y70163739D01*
X11971298Y70160628D01*
X11938000Y70160445D01*
X11759259Y70160445D01*
X11759259Y71022182D01*
X11933296Y71029114D01*
X12009852Y71030667D01*
X12070700Y71029080D01*
G37*
G36*
X14988500Y71501740D02*
G01*
X15123310Y71455959D01*
X15238128Y71388208D01*
X15254111Y71375304D01*
X15300245Y71314902D01*
X15313642Y71244239D01*
X15295237Y71169849D01*
X15245970Y71098263D01*
X15209617Y71065217D01*
X15143397Y71032072D01*
X15069274Y71032530D01*
X14983891Y71066849D01*
X14953780Y71084936D01*
X14868276Y71125929D01*
X14784736Y71141684D01*
X14709858Y71133559D01*
X14650341Y71102911D01*
X14612885Y71051100D01*
X14604115Y71014066D01*
X14607903Y70967339D01*
X14632316Y70927900D01*
X14681351Y70893086D01*
X14759007Y70860234D01*
X14869279Y70826679D01*
X14896037Y70819534D01*
X15036893Y70780350D01*
X15145858Y70743844D01*
X15228203Y70706783D01*
X15289202Y70665933D01*
X15334125Y70618064D01*
X15368244Y70559943D01*
X15385481Y70519430D01*
X15410619Y70418161D01*
X15418042Y70301414D01*
X15408176Y70184455D01*
X15381443Y70082551D01*
X15372799Y70062525D01*
X15300732Y69952988D01*
X15201228Y69863204D01*
X15080151Y69795407D01*
X14943366Y69751828D01*
X14796737Y69734701D01*
X14646130Y69746259D01*
X14580550Y69760889D01*
X14470867Y69801612D01*
X14369641Y69859616D01*
X14282861Y69929464D01*
X14216513Y70005721D01*
X14176584Y70082954D01*
X14167556Y70135798D01*
X14177600Y70186903D01*
X14211541Y70240637D01*
X14239902Y70272541D01*
X14297920Y70324622D01*
X14350793Y70348282D01*
X14405418Y70342977D01*
X14468693Y70308164D01*
X14541366Y70248813D01*
X14635908Y70174214D01*
X14719399Y70130898D01*
X14797673Y70116519D01*
X14854416Y70122842D01*
X14930253Y70150186D01*
X14978567Y70194916D01*
X14998411Y70234196D01*
X15010543Y70296996D01*
X14991812Y70348195D01*
X14939559Y70392492D01*
X14895978Y70415428D01*
X14836512Y70440661D01*
X14787131Y70457333D01*
X14765910Y70461298D01*
X14714312Y70470173D01*
X14640850Y70493338D01*
X14556231Y70526242D01*
X14471164Y70564336D01*
X14396358Y70603067D01*
X14342521Y70637887D01*
X14334499Y70644620D01*
X14257576Y70737815D01*
X14209660Y70847248D01*
X14189897Y70966258D01*
X14197434Y71088186D01*
X14231417Y71206368D01*
X14290994Y71314146D01*
X14375312Y71404857D01*
X14437445Y71448334D01*
X14558171Y71498846D01*
X14696526Y71524024D01*
X14843104Y71524709D01*
X14988500Y71501740D01*
G37*
D10*
%TO.C,U3*%
X3060000Y2540000D02*
X68060000Y2540000D01*
D13*
X15560000Y17040000D02*
X17560000Y17040000D01*
D10*
X3060000Y32540000D02*
X3060000Y2540000D01*
D13*
X26560000Y30540000D02*
X26560000Y11540000D01*
X52560000Y21540000D02*
X52560000Y19540000D01*
X52560000Y15540000D02*
X52560000Y13540000D01*
D14*
X59800000Y9410000D02*
X61130000Y9410000D01*
D13*
X45560000Y11540000D02*
X45560000Y30540000D01*
D14*
X58530000Y6810000D02*
X61130000Y6810000D01*
D13*
X56560000Y25540000D02*
X56560000Y27540000D01*
X19560000Y21040000D02*
X17560000Y23040000D01*
D10*
X68060000Y2540000D02*
X68060000Y32540000D01*
D14*
X58530000Y9410000D02*
X58530000Y6810000D01*
D13*
X52560000Y25540000D02*
X56560000Y25540000D01*
X13560000Y19040000D02*
X15560000Y17040000D01*
D14*
X61130000Y4210000D02*
X10210000Y4210000D01*
D13*
X15560000Y23040000D02*
X13560000Y21040000D01*
X17560000Y23040000D02*
X15560000Y23040000D01*
D14*
X61130000Y6810000D02*
X61130000Y4210000D01*
D13*
X52560000Y19540000D02*
X56560000Y19540000D01*
X56560000Y13540000D02*
X56560000Y15540000D01*
X13560000Y21040000D02*
X13560000Y19040000D01*
X17560000Y17040000D02*
X19560000Y19040000D01*
X56560000Y21540000D02*
X52560000Y21540000D01*
X19560000Y19040000D02*
X19560000Y21040000D01*
X56560000Y27540000D02*
X52560000Y27540000D01*
D14*
X10210000Y9410000D02*
X10210000Y4210000D01*
D13*
X56560000Y19540000D02*
X56560000Y21540000D01*
X52560000Y27540000D02*
X52560000Y25540000D01*
X45560000Y30540000D02*
X26560000Y30540000D01*
X56560000Y15540000D02*
X52560000Y15540000D01*
X26560000Y11540000D02*
X45560000Y11540000D01*
D14*
X58530000Y9410000D02*
X10210000Y9410000D01*
D10*
X68060000Y32540000D02*
X3060000Y32540000D01*
D14*
X61130000Y9410000D02*
X61130000Y8080000D01*
D13*
X52560000Y13540000D02*
X56560000Y13540000D01*
D15*
X17185000Y20040000D02*
G75*
G03*
X17185000Y20040000I-625000J0D01*
G01*
D14*
%TO.C,C1*%
X8715000Y16759000D02*
X7390000Y16759000D01*
X5310000Y16359000D02*
X4201000Y16359000D01*
X7027000Y15279000D02*
X5673000Y15279000D01*
X7825000Y20604775D02*
X7825000Y20104775D01*
X8093000Y15879000D02*
X7390000Y15879000D01*
X5310000Y17400000D02*
X3800000Y17400000D01*
X5310000Y16079000D02*
X4413000Y16079000D01*
X8321000Y16119000D02*
X7390000Y16119000D01*
X7528000Y15479000D02*
X5172000Y15479000D01*
X8698000Y16719000D02*
X7390000Y16719000D01*
X5310000Y17079000D02*
X3870000Y17079000D01*
X7361000Y15399000D02*
X5339000Y15399000D01*
X8830000Y17079000D02*
X7390000Y17079000D01*
X5310000Y16719000D02*
X4002000Y16719000D01*
X5310000Y16959000D02*
X3908000Y16959000D01*
X8929000Y17720000D02*
X3771000Y17720000D01*
X5310000Y16479000D02*
X4126000Y16479000D01*
X7904000Y15719000D02*
X7390000Y15719000D01*
X8792000Y16959000D02*
X7390000Y16959000D01*
X5310000Y17039000D02*
X3882000Y17039000D01*
X5310000Y16119000D02*
X4379000Y16119000D01*
X8214000Y15999000D02*
X7390000Y15999000D01*
X7955000Y15759000D02*
X7390000Y15759000D01*
X8445000Y16279000D02*
X7390000Y16279000D01*
X5310000Y15759000D02*
X4745000Y15759000D01*
X7793000Y15639000D02*
X7390000Y15639000D01*
X5310000Y17480000D02*
X3789000Y17480000D01*
X8003000Y15799000D02*
X7390000Y15799000D01*
X8075000Y20354775D02*
X7575000Y20354775D01*
X8861000Y17200000D02*
X7390000Y17200000D01*
X5310000Y16159000D02*
X4346000Y16159000D01*
X5310000Y15679000D02*
X4850000Y15679000D01*
X5310000Y16399000D02*
X4175000Y16399000D01*
X8906000Y17440000D02*
X7390000Y17440000D01*
X8778000Y16919000D02*
X7390000Y16919000D01*
X8732000Y16799000D02*
X7390000Y16799000D01*
X8660000Y16639000D02*
X7390000Y16639000D01*
X8915000Y17520000D02*
X7390000Y17520000D01*
X8911000Y17480000D02*
X7390000Y17480000D01*
X6868000Y15239000D02*
X5832000Y15239000D01*
X5310000Y15519000D02*
X5099000Y15519000D01*
X5310000Y16799000D02*
X3968000Y16799000D01*
X5310000Y16759000D02*
X3985000Y16759000D01*
X8878000Y17280000D02*
X7390000Y17280000D01*
X5310000Y16439000D02*
X4150000Y16439000D01*
X5310000Y16879000D02*
X3936000Y16879000D01*
X8415000Y16239000D02*
X7390000Y16239000D01*
X8251000Y16039000D02*
X7390000Y16039000D01*
X5310000Y17560000D02*
X3781000Y17560000D01*
X5310000Y16679000D02*
X4021000Y16679000D01*
X5310000Y16919000D02*
X3922000Y16919000D01*
X5310000Y16039000D02*
X4449000Y16039000D01*
X5310000Y17120000D02*
X3859000Y17120000D01*
X5310000Y16559000D02*
X4082000Y16559000D01*
X8618000Y16559000D02*
X7390000Y16559000D01*
X5310000Y17360000D02*
X3807000Y17360000D01*
X8354000Y16159000D02*
X7390000Y16159000D01*
X8472000Y16319000D02*
X7390000Y16319000D01*
X5310000Y16519000D02*
X4103000Y16519000D01*
X8385000Y16199000D02*
X7390000Y16199000D01*
X5310000Y16639000D02*
X4040000Y16639000D01*
X5310000Y16319000D02*
X4228000Y16319000D01*
X8818000Y17039000D02*
X7390000Y17039000D01*
X5310000Y15599000D02*
X4967000Y15599000D01*
X7850000Y15679000D02*
X7390000Y15679000D01*
X8900000Y17400000D02*
X7390000Y17400000D01*
X8919000Y17560000D02*
X7390000Y17560000D01*
X8928000Y17680000D02*
X3772000Y17680000D01*
X8886000Y17320000D02*
X7390000Y17320000D01*
X8764000Y16879000D02*
X7390000Y16879000D01*
X5310000Y15919000D02*
X4565000Y15919000D01*
X8923000Y17600000D02*
X3777000Y17600000D01*
X8640000Y16599000D02*
X7390000Y16599000D01*
X5310000Y17240000D02*
X3830000Y17240000D01*
X8049000Y15839000D02*
X7390000Y15839000D01*
X5310000Y15639000D02*
X4907000Y15639000D01*
X5310000Y16199000D02*
X4315000Y16199000D01*
X5310000Y16839000D02*
X3952000Y16839000D01*
X8176000Y15959000D02*
X7390000Y15959000D01*
X7265000Y15359000D02*
X5435000Y15359000D01*
X8893000Y17360000D02*
X7390000Y17360000D01*
X5310000Y17160000D02*
X3849000Y17160000D01*
X7669000Y15559000D02*
X7390000Y15559000D01*
X8748000Y16839000D02*
X7390000Y16839000D01*
X8851000Y17160000D02*
X7390000Y17160000D01*
X5310000Y17200000D02*
X3839000Y17200000D01*
X8287000Y16079000D02*
X7390000Y16079000D01*
X8841000Y17120000D02*
X7390000Y17120000D01*
X8870000Y17240000D02*
X7390000Y17240000D01*
X8135000Y15919000D02*
X7390000Y15919000D01*
X5310000Y17520000D02*
X3785000Y17520000D01*
X7601000Y15519000D02*
X7390000Y15519000D01*
X8679000Y16679000D02*
X7390000Y16679000D01*
X7448000Y15439000D02*
X5252000Y15439000D01*
X8597000Y16519000D02*
X7390000Y16519000D01*
X5310000Y15799000D02*
X4697000Y15799000D01*
X7733000Y15599000D02*
X7390000Y15599000D01*
X5310000Y16239000D02*
X4285000Y16239000D01*
X7155000Y15319000D02*
X5545000Y15319000D01*
X5310000Y15999000D02*
X4486000Y15999000D01*
X5310000Y15719000D02*
X4796000Y15719000D01*
X6634000Y15199000D02*
X6066000Y15199000D01*
X8525000Y16399000D02*
X7390000Y16399000D01*
X5310000Y17320000D02*
X3814000Y17320000D01*
X5310000Y16999000D02*
X3895000Y16999000D01*
X5310000Y16279000D02*
X4255000Y16279000D01*
X5310000Y15879000D02*
X4607000Y15879000D01*
X5310000Y15559000D02*
X5031000Y15559000D01*
X5310000Y17280000D02*
X3822000Y17280000D01*
X5310000Y17440000D02*
X3794000Y17440000D01*
X5310000Y15959000D02*
X4524000Y15959000D01*
X8926000Y17640000D02*
X3774000Y17640000D01*
X8499000Y16359000D02*
X7390000Y16359000D01*
X8805000Y16999000D02*
X7390000Y16999000D01*
X5310000Y15839000D02*
X4651000Y15839000D01*
X8550000Y16439000D02*
X7390000Y16439000D01*
X8574000Y16479000D02*
X7390000Y16479000D01*
X5310000Y16599000D02*
X4060000Y16599000D01*
X8930000Y17760000D02*
X3770000Y17760000D01*
X8930000Y17800000D02*
X3770000Y17800000D01*
X8970000Y17800000D02*
G75*
G03*
X8970000Y17800000I-2620000J0D01*
G01*
D10*
%TO.C,U1*%
X8560000Y64800000D02*
X62560000Y64800000D01*
X8560000Y41800000D02*
X1560000Y41800000D01*
X62560000Y64800000D02*
X62560000Y36800000D01*
X8560000Y64800000D02*
X8560000Y59800000D01*
X8560000Y36800000D02*
X8560000Y41800000D01*
X1560000Y59800000D02*
X1560000Y41800000D01*
X62560000Y36800000D02*
X8560000Y36800000D01*
X8560000Y59800000D02*
X1560000Y59800000D01*
%TD*%
M02*
