%TF.GenerationSoftware,KiCad,Pcbnew,6.0.8-f2edbf62ab~116~ubuntu20.04.1*%
%TF.CreationDate,2022-10-24T22:15:28-06:00*%
%TF.ProjectId,seedsigner-esp32-dev-board,73656564-7369-4676-9e65-722d65737033,rev?*%
%TF.SameCoordinates,Original*%
%TF.FileFunction,Copper,L1,Top*%
%TF.FilePolarity,Positive*%
%FSLAX46Y46*%
G04 Gerber Fmt 4.6, Leading zero omitted, Abs format (unit mm)*
G04 Created by KiCad (PCBNEW 6.0.8-f2edbf62ab~116~ubuntu20.04.1) date 2022-10-24 22:15:28*
%MOMM*%
%LPD*%
G01*
G04 APERTURE LIST*
%TA.AperFunction,ComponentPad*%
%ADD10O,1.700000X1.700000*%
%TD*%
%TA.AperFunction,ComponentPad*%
%ADD11R,1.700000X1.700000*%
%TD*%
%TA.AperFunction,WasherPad*%
%ADD12C,3.500000*%
%TD*%
%TA.AperFunction,ComponentPad*%
%ADD13R,1.600000X1.600000*%
%TD*%
%TA.AperFunction,ComponentPad*%
%ADD14C,1.600000*%
%TD*%
%TA.AperFunction,ComponentPad*%
%ADD15C,1.530000*%
%TD*%
%TA.AperFunction,ViaPad*%
%ADD16C,0.800000*%
%TD*%
%TA.AperFunction,Conductor*%
%ADD17C,0.250000*%
%TD*%
G04 APERTURE END LIST*
D10*
%TO.P,U3,40,GPIO21*%
%TO.N,/KEY1*%
X11540000Y5540000D03*
%TO.P,U3,39,GND*%
%TO.N,GND*%
X11540000Y8080000D03*
%TO.P,U3,38,GPIO20*%
%TO.N,/KEY2*%
X14080000Y5540000D03*
%TO.P,U3,37,GPIO26*%
%TO.N,/JOYSTICK_RIGHT*%
X14080000Y8080000D03*
%TO.P,U3,36,GPIO16*%
%TO.N,/KEY3*%
X16620000Y5540000D03*
%TO.P,U3,35,GPIO19*%
%TO.N,/JOYSTICK_DOWN*%
X16620000Y8080000D03*
%TO.P,U3,34,GND*%
%TO.N,GND*%
X19160000Y5540000D03*
%TO.P,U3,33,GPIO13*%
%TO.N,/JOYSTICK_PRESS*%
X19160000Y8080000D03*
%TO.P,U3,32,GPIO12*%
%TO.N,unconnected-(U3-Pad32)*%
X21700000Y5540000D03*
%TO.P,U3,31,GPIO6*%
%TO.N,/JOYSTICK_UP*%
X21700000Y8080000D03*
%TO.P,U3,30,GND*%
%TO.N,GND*%
X24240000Y5540000D03*
%TO.P,U3,29,GPIO5*%
%TO.N,/JOYSTICK_LEFT*%
X24240000Y8080000D03*
%TO.P,U3,28,ID_SC*%
%TO.N,unconnected-(U3-Pad28)*%
X26780000Y5540000D03*
%TO.P,U3,27,ID_SD*%
%TO.N,unconnected-(U3-Pad27)*%
X26780000Y8080000D03*
%TO.P,U3,26,GPIO7/~{SPI_CE1}*%
%TO.N,unconnected-(U3-Pad26)*%
X29320000Y5540000D03*
%TO.P,U3,25,GND*%
%TO.N,GND*%
X29320000Y8080000D03*
%TO.P,U3,24,GPIO8/~{SPI_CE0}*%
%TO.N,/SPI_CS*%
X31860000Y5540000D03*
%TO.P,U3,23,GPIO11/SPI_SCLK*%
%TO.N,/SPI_SCLK*%
X31860000Y8080000D03*
%TO.P,U3,22,GPIO25/GPIO_GEN6*%
%TO.N,/DC*%
X34400000Y5540000D03*
%TO.P,U3,21,GPIO9/SPI_MISO*%
%TO.N,unconnected-(U3-Pad21)*%
X34400000Y8080000D03*
%TO.P,U3,20,GND*%
%TO.N,GND*%
X36940000Y5540000D03*
%TO.P,U3,19,GPIO10/SPI_MOSI*%
%TO.N,/SPI_MOSI*%
X36940000Y8080000D03*
%TO.P,U3,18,GPIO24/GPIO_GEN5*%
%TO.N,unconnected-(U3-Pad18)*%
X39480000Y5540000D03*
%TO.P,U3,17,3V3*%
%TO.N,+3.3V*%
X39480000Y8080000D03*
%TO.P,U3,16,GPIO23/GPIO_GEN4*%
%TO.N,unconnected-(U3-Pad16)*%
X42020000Y5540000D03*
%TO.P,U3,15,GPIO22/GPIO_GEN3*%
%TO.N,unconnected-(U3-Pad15)*%
X42020000Y8080000D03*
%TO.P,U3,14,GND*%
%TO.N,GND*%
X44560000Y5540000D03*
%TO.P,U3,13,GPIO27/GPIO_GEN2*%
%TO.N,unconnected-(U3-Pad13)*%
X44560000Y8080000D03*
%TO.P,U3,12,GPIO18/GPIO_GEN1*%
%TO.N,unconnected-(U3-Pad12)*%
X47100000Y5540000D03*
%TO.P,U3,11,GPIO17/GPIO_GEN0*%
%TO.N,/RST*%
X47100000Y8080000D03*
%TO.P,U3,10,RXD0/GPIO15*%
%TO.N,unconnected-(U3-Pad10)*%
X49640000Y5540000D03*
%TO.P,U3,9,GND*%
%TO.N,GND*%
X49640000Y8080000D03*
%TO.P,U3,8,TXD0/GPIO14*%
%TO.N,unconnected-(U3-Pad8)*%
X52180000Y5540000D03*
%TO.P,U3,7,GPIO4/GPIO_GCKL*%
%TO.N,unconnected-(U3-Pad7)*%
X52180000Y8080000D03*
%TO.P,U3,6,GND*%
%TO.N,GND*%
X54720000Y5540000D03*
%TO.P,U3,5,GPIO3/SCL1*%
%TO.N,unconnected-(U3-Pad5)*%
X54720000Y8080000D03*
%TO.P,U3,4,5V0*%
%TO.N,Net-(U3-Pad2)*%
X57260000Y5540000D03*
%TO.P,U3,3,GPIO2/SDA1*%
%TO.N,unconnected-(U3-Pad3)*%
X57260000Y8080000D03*
%TO.P,U3,2,5V0*%
%TO.N,Net-(U3-Pad2)*%
X59800000Y5540000D03*
D11*
%TO.P,U3,1,3V3*%
%TO.N,+3.3V*%
X59800000Y8080000D03*
D12*
%TO.P,U3,*%
%TO.N,*%
X6560000Y5540000D03*
X64560000Y5540000D03*
X64560000Y29540000D03*
X6560000Y29540000D03*
%TD*%
D13*
%TO.P,C1,1*%
%TO.N,+3.3V*%
X6350000Y19050000D03*
D14*
%TO.P,C1,2*%
%TO.N,GND*%
X6350000Y16550000D03*
%TD*%
D11*
%TO.P,J1,1,Pin_1*%
%TO.N,/XTRA1*%
X66040000Y22860000D03*
D10*
%TO.P,J1,2,Pin_2*%
%TO.N,/XTRA2*%
X66040000Y20320000D03*
%TO.P,J1,3,Pin_3*%
%TO.N,/XTRA3*%
X66040000Y17780000D03*
%TO.P,J1,4,Pin_4*%
%TO.N,/XTRA4*%
X66040000Y15240000D03*
%TO.P,J1,5,Pin_5*%
%TO.N,/XTRA5*%
X66040000Y12700000D03*
%TD*%
D15*
%TO.P,U1,0,GPIO0*%
%TO.N,/KEY3*%
X12700000Y38100000D03*
%TO.P,U1,1,GPIO1*%
%TO.N,/KEY2*%
X15240000Y38100000D03*
%TO.P,U1,2,GPIO2*%
%TO.N,/KEY1*%
X17780000Y38100000D03*
%TO.P,U1,3,GPIO3*%
%TO.N,/JOYSTICK_RIGHT*%
X20320000Y38100000D03*
%TO.P,U1,3V3,VDD33*%
%TO.N,+3.3V*%
X10160000Y38100000D03*
%TO.P,U1,4,GPIO4*%
%TO.N,/JOYSTICK_DOWN*%
X22860000Y38100000D03*
%TO.P,U1,5,GPIO5*%
%TO.N,/JOYSTICK_PRESS*%
X25400000Y38100000D03*
%TO.P,U1,5V,+5V*%
%TO.N,+5V*%
X58420000Y38100000D03*
%TO.P,U1,6,GPIO6*%
%TO.N,/JOYSTICK_UP*%
X27940000Y38100000D03*
%TO.P,U1,7,GPIO7*%
%TO.N,/JOYSTICK_LEFT*%
X30480000Y38100000D03*
%TO.P,U1,8,GPIO8*%
%TO.N,/SDA*%
X33020000Y38100000D03*
%TO.P,U1,9,GPIO9*%
%TO.N,/SCL*%
X35560000Y38100000D03*
%TO.P,U1,10,GPIO10*%
%TO.N,/SPI_CS*%
X38100000Y38100000D03*
%TO.P,U1,11,GPIO11*%
%TO.N,/SPI_MOSI*%
X40640000Y38100000D03*
%TO.P,U1,12,GPIO12*%
%TO.N,/SPI_SCLK*%
X43180000Y38100000D03*
%TO.P,U1,13,GPIO13*%
%TO.N,/DC*%
X45720000Y38100000D03*
%TO.P,U1,14,GPIO14*%
%TO.N,/RST*%
X48260000Y38100000D03*
%TO.P,U1,15,GPIO15*%
%TO.N,/XTRA5*%
X50800000Y38100000D03*
%TO.P,U1,16,GPIO16*%
%TO.N,/XTRA4*%
X53340000Y38100000D03*
%TO.P,U1,17,GPIO17*%
%TO.N,/XTRA3*%
X55880000Y38100000D03*
%TO.P,U1,18,EXT_GPIO18*%
%TO.N,unconnected-(U1-Pad18)*%
X60960000Y63500000D03*
%TO.P,U1,19,GPIO19*%
%TO.N,/XTRA1*%
X58420000Y63500000D03*
%TO.P,U1,20,GPIO20*%
%TO.N,/XTRA2*%
X55880000Y63500000D03*
%TO.P,U1,21,GPIO21*%
%TO.N,/VSYNC*%
X53340000Y63500000D03*
%TO.P,U1,26,GPIO26*%
%TO.N,/HREF*%
X50800000Y63500000D03*
%TO.P,U1,33,GPIO33*%
%TO.N,/PCLK*%
X48260000Y63500000D03*
%TO.P,U1,34,GPIO34*%
%TO.N,/XCLK*%
X45720000Y63500000D03*
%TO.P,U1,35,GPIO35*%
%TO.N,/D9*%
X43180000Y63500000D03*
%TO.P,U1,36,GPIO36*%
%TO.N,/D8*%
X40640000Y63500000D03*
%TO.P,U1,37,GPIO37*%
%TO.N,/D7*%
X38100000Y63500000D03*
%TO.P,U1,38,GPIO38*%
%TO.N,/D6*%
X35560000Y63500000D03*
%TO.P,U1,39,GPIO39*%
%TO.N,/D5*%
X33020000Y63500000D03*
%TO.P,U1,40,GPIO40*%
%TO.N,/D4*%
X30480000Y63500000D03*
%TO.P,U1,41,GPIO41*%
%TO.N,/D3*%
X27940000Y63500000D03*
%TO.P,U1,42,GPIO42*%
%TO.N,/D2*%
X25400000Y63500000D03*
%TO.P,U1,45,GPIO45*%
%TO.N,unconnected-(U1-Pad45)*%
X17780000Y63500000D03*
%TO.P,U1,46,GPIO46*%
%TO.N,unconnected-(U1-Pad46)*%
X15240000Y63500000D03*
%TO.P,U1,GND_1,GND*%
%TO.N,GND*%
X60960000Y38100000D03*
%TO.P,U1,GND_2,GND*%
X10160000Y63500000D03*
%TO.P,U1,RST,CHIP_PU*%
%TO.N,unconnected-(U1-PadRST)*%
X12700000Y63500000D03*
%TO.P,U1,RX,U0RXD*%
%TO.N,unconnected-(U1-PadRX)*%
X20320000Y63500000D03*
%TO.P,U1,TX,U0TXD*%
%TO.N,unconnected-(U1-PadTX)*%
X22860000Y63500000D03*
%TD*%
D11*
%TO.P,U2,1,3.3V*%
%TO.N,+3.3V*%
X48260000Y72390000D03*
D10*
%TO.P,U2,2,GND*%
%TO.N,GND*%
X48260000Y74930000D03*
%TO.P,U2,3,SIOC*%
%TO.N,/SCL*%
X45720000Y72390000D03*
%TO.P,U2,4,SIOD*%
%TO.N,/SDA*%
X45720000Y74930000D03*
%TO.P,U2,5,VSYNC*%
%TO.N,/VSYNC*%
X43180000Y72390000D03*
%TO.P,U2,6,HREF*%
%TO.N,/HREF*%
X43180000Y74930000D03*
%TO.P,U2,7,PCLK*%
%TO.N,/PCLK*%
X40640000Y72390000D03*
%TO.P,U2,8,XCLK*%
%TO.N,/XCLK*%
X40640000Y74930000D03*
%TO.P,U2,9,D9*%
%TO.N,/D9*%
X38100000Y72390000D03*
%TO.P,U2,10,D8*%
%TO.N,/D8*%
X38100000Y74930000D03*
%TO.P,U2,11,D7*%
%TO.N,/D7*%
X35560000Y72390000D03*
%TO.P,U2,12,D6*%
%TO.N,/D6*%
X35560000Y74930000D03*
%TO.P,U2,13,D5*%
%TO.N,/D5*%
X33020000Y72390000D03*
%TO.P,U2,14,D4*%
%TO.N,/D4*%
X33020000Y74930000D03*
%TO.P,U2,15,D3*%
%TO.N,/D3*%
X30480000Y72390000D03*
%TO.P,U2,16,D2*%
%TO.N,/D2*%
X30480000Y74930000D03*
%TO.P,U2,17,RET*%
%TO.N,unconnected-(U2-Pad17)*%
X27940000Y72390000D03*
%TO.P,U2,18,PDWN*%
%TO.N,unconnected-(U2-Pad18)*%
X27940000Y74930000D03*
%TD*%
D16*
%TO.N,/SDA*%
X44450000Y60960000D03*
%TO.N,/SCL*%
X46990000Y60960000D03*
%TO.N,/SPI_SCLK*%
X36195000Y31115000D03*
%TD*%
D17*
%TO.N,+3.3V*%
X10160000Y38100000D02*
X7620000Y40640000D01*
X13970000Y77470000D02*
X48260000Y77470000D01*
X7620000Y40640000D02*
X7620000Y71120000D01*
X7620000Y71120000D02*
X13970000Y77470000D01*
X48260000Y77470000D02*
X50165000Y75565000D01*
X50165000Y75565000D02*
X50165000Y74295000D01*
X50165000Y74295000D02*
X48260000Y72390000D01*
%TO.N,GND*%
X48260000Y74930000D02*
X46355000Y76835000D01*
X46355000Y76835000D02*
X15240000Y76835000D01*
X15240000Y76835000D02*
X10160000Y71755000D01*
X10160000Y71755000D02*
X10160000Y63500000D01*
%TO.N,/DC*%
X34400000Y5540000D02*
X35765000Y6905000D01*
X45720000Y27940000D02*
X45720000Y38100000D01*
X35765000Y6905000D02*
X37426701Y6905000D01*
X37426701Y6905000D02*
X38115000Y7593299D01*
X38115000Y20335000D02*
X45720000Y27940000D01*
X38115000Y7593299D02*
X38115000Y20335000D01*
%TO.N,/RST*%
X48260000Y34290000D02*
X48260000Y38100000D01*
X47100000Y33130000D02*
X48260000Y34290000D01*
X47100000Y8080000D02*
X47100000Y33130000D01*
%TO.N,/KEY1*%
X17780000Y33020000D02*
X17780000Y38100000D01*
X12715000Y27955000D02*
X13335000Y28575000D01*
X13335000Y28575000D02*
X17780000Y33020000D01*
X12715000Y6715000D02*
X12715000Y27955000D01*
X11540000Y5540000D02*
X12715000Y6715000D01*
%TO.N,/XCLK*%
X39370000Y73660000D02*
X39370000Y70485000D01*
X40640000Y74930000D02*
X39370000Y73660000D01*
X45720000Y65405000D02*
X45720000Y63500000D01*
X39370000Y70485000D02*
X42545000Y67310000D01*
X42545000Y67310000D02*
X43815000Y67310000D01*
X43815000Y67310000D02*
X45720000Y65405000D01*
%TO.N,/PCLK*%
X40640000Y72390000D02*
X40640000Y71120000D01*
X43180000Y68580000D02*
X45085000Y68580000D01*
X48260000Y65405000D02*
X48260000Y63500000D01*
X40640000Y71120000D02*
X43180000Y68580000D01*
X45085000Y68580000D02*
X48260000Y65405000D01*
%TO.N,/HREF*%
X46355000Y69215000D02*
X50800000Y64770000D01*
X43815000Y69215000D02*
X46355000Y69215000D01*
X42005000Y73755000D02*
X42005000Y71025000D01*
X43180000Y74930000D02*
X42005000Y73755000D01*
X42005000Y71025000D02*
X43815000Y69215000D01*
X50800000Y64770000D02*
X50800000Y63500000D01*
%TO.N,/VSYNC*%
X43180000Y72390000D02*
X43180000Y71120000D01*
X44450000Y69850000D02*
X48260000Y69850000D01*
X53340000Y64770000D02*
X53340000Y63500000D01*
X43180000Y71120000D02*
X44450000Y69850000D01*
X48260000Y69850000D02*
X53340000Y64770000D01*
%TO.N,/SDA*%
X33020000Y49530000D02*
X44450000Y60960000D01*
X33020000Y38100000D02*
X33020000Y49530000D01*
%TO.N,/SCL*%
X35560000Y38100000D02*
X35560000Y49530000D01*
X35560000Y49530000D02*
X46990000Y60960000D01*
%TO.N,/SPI_CS*%
X33225000Y21795000D02*
X38100000Y26670000D01*
X31860000Y5540000D02*
X32210000Y5540000D01*
X32210000Y5540000D02*
X33225000Y6555000D01*
X33225000Y6555000D02*
X33225000Y21795000D01*
X38100000Y26670000D02*
X38100000Y38100000D01*
%TO.N,/SPI_MOSI*%
X36940000Y8080000D02*
X36940000Y21700000D01*
X40640000Y25400000D02*
X40640000Y38100000D01*
X36940000Y21700000D02*
X40640000Y25400000D01*
%TO.N,/SPI_SCLK*%
X31860000Y26780000D02*
X36195000Y31115000D01*
X31860000Y8080000D02*
X31860000Y26780000D01*
%TO.N,/JOYSTICK_UP*%
X27940000Y31115000D02*
X27940000Y38100000D01*
X21700000Y24875000D02*
X27940000Y31115000D01*
X21700000Y8080000D02*
X21700000Y24875000D01*
%TO.N,/JOYSTICK_DOWN*%
X16620000Y26145000D02*
X22860000Y32385000D01*
X22860000Y32385000D02*
X22860000Y38100000D01*
X16620000Y8080000D02*
X16620000Y26145000D01*
%TO.N,/JOYSTICK_LEFT*%
X30480000Y29845000D02*
X30480000Y38100000D01*
X24240000Y8080000D02*
X24240000Y23605000D01*
X24240000Y23605000D02*
X30480000Y29845000D01*
%TO.N,/JOYSTICK_RIGHT*%
X14080000Y8080000D02*
X14080000Y26145000D01*
X20320000Y32385000D02*
X20320000Y38100000D01*
X14080000Y26145000D02*
X20320000Y32385000D01*
%TO.N,/JOYSTICK_PRESS*%
X19160000Y8080000D02*
X19160000Y25510000D01*
X19160000Y25510000D02*
X25400000Y31750000D01*
X25400000Y31750000D02*
X25400000Y38100000D01*
%TO.N,/KEY3*%
X9525000Y5715000D02*
X9525000Y24130000D01*
X12700000Y34290000D02*
X12700000Y38100000D01*
X9525000Y28575000D02*
X12700000Y31750000D01*
X12700000Y34290000D02*
X12700000Y34925000D01*
X15875000Y3175000D02*
X10160000Y3175000D01*
X12700000Y31750000D02*
X12700000Y34290000D01*
X16620000Y3920000D02*
X15875000Y3175000D01*
X9525000Y24130000D02*
X9525000Y28575000D01*
X9525000Y3810000D02*
X9525000Y5715000D01*
X16620000Y5540000D02*
X16620000Y3920000D01*
X10160000Y3175000D02*
X9525000Y3810000D01*
%TO.N,/KEY2*%
X10160000Y27305000D02*
X15240000Y32385000D01*
X10795000Y3810000D02*
X10160000Y4445000D01*
X12350000Y3810000D02*
X10795000Y3810000D01*
X10160000Y4445000D02*
X10160000Y27305000D01*
X15240000Y32385000D02*
X15240000Y38100000D01*
X14080000Y5540000D02*
X12350000Y3810000D01*
%TO.N,/D2*%
X30480000Y74930000D02*
X29115000Y73565000D01*
X29115000Y71025000D02*
X25400000Y67310000D01*
X25400000Y67310000D02*
X25400000Y63500000D01*
X29115000Y73565000D02*
X29115000Y71025000D01*
%TO.N,/D3*%
X30480000Y72390000D02*
X30480000Y70485000D01*
X27940000Y67945000D02*
X27940000Y63500000D01*
X30480000Y70485000D02*
X27940000Y67945000D01*
%TO.N,/D4*%
X31750000Y69215000D02*
X30480000Y67945000D01*
X31750000Y73660000D02*
X31750000Y69215000D01*
X33020000Y74930000D02*
X31750000Y73660000D01*
X30480000Y67945000D02*
X30480000Y63500000D01*
%TO.N,/D5*%
X33020000Y72390000D02*
X33020000Y63500000D01*
%TO.N,/D6*%
X34290000Y73660000D02*
X34290000Y68580000D01*
X35560000Y74930000D02*
X34290000Y73660000D01*
X35560000Y67310000D02*
X35560000Y63500000D01*
X34290000Y68580000D02*
X35560000Y67310000D01*
%TO.N,/D7*%
X38100000Y66675000D02*
X38100000Y63500000D01*
X35560000Y69215000D02*
X38100000Y66675000D01*
X35560000Y72390000D02*
X35560000Y69215000D01*
%TO.N,/D8*%
X36830000Y73660000D02*
X36830000Y69850000D01*
X38100000Y74930000D02*
X36830000Y73660000D01*
X40640000Y66040000D02*
X40640000Y63500000D01*
X36830000Y69850000D02*
X40640000Y66040000D01*
%TO.N,/D9*%
X38100000Y70485000D02*
X43180000Y65405000D01*
X38100000Y72390000D02*
X38100000Y70485000D01*
X43180000Y65405000D02*
X43180000Y63500000D01*
%TO.N,GND*%
X49640000Y22970000D02*
X60960000Y34290000D01*
X60960000Y34290000D02*
X60960000Y38100000D01*
X49640000Y8080000D02*
X49640000Y22970000D01*
%TD*%
M02*
