%TF.GenerationSoftware,KiCad,Pcbnew,6.0.8-f2edbf62ab~116~ubuntu20.04.1*%
%TF.CreationDate,2022-10-24T22:15:29-06:00*%
%TF.ProjectId,seedsigner-esp32-dev-board,73656564-7369-4676-9e65-722d65737033,rev?*%
%TF.SameCoordinates,Original*%
%TF.FileFunction,Soldermask,Top*%
%TF.FilePolarity,Negative*%
%FSLAX46Y46*%
G04 Gerber Fmt 4.6, Leading zero omitted, Abs format (unit mm)*
G04 Created by KiCad (PCBNEW 6.0.8-f2edbf62ab~116~ubuntu20.04.1) date 2022-10-24 22:15:29*
%MOMM*%
%LPD*%
G01*
G04 APERTURE LIST*
%ADD10O,1.700000X1.700000*%
%ADD11R,1.700000X1.700000*%
%ADD12C,3.500000*%
%ADD13R,1.600000X1.600000*%
%ADD14C,1.600000*%
%ADD15C,1.530000*%
G04 APERTURE END LIST*
D10*
%TO.C,U3*%
X11540000Y5540000D03*
X11540000Y8080000D03*
X14080000Y5540000D03*
X14080000Y8080000D03*
X16620000Y5540000D03*
X16620000Y8080000D03*
X19160000Y5540000D03*
X19160000Y8080000D03*
X21700000Y5540000D03*
X21700000Y8080000D03*
X24240000Y5540000D03*
X24240000Y8080000D03*
X26780000Y5540000D03*
X26780000Y8080000D03*
X29320000Y5540000D03*
X29320000Y8080000D03*
X31860000Y5540000D03*
X31860000Y8080000D03*
X34400000Y5540000D03*
X34400000Y8080000D03*
X36940000Y5540000D03*
X36940000Y8080000D03*
X39480000Y5540000D03*
X39480000Y8080000D03*
X42020000Y5540000D03*
X42020000Y8080000D03*
X44560000Y5540000D03*
X44560000Y8080000D03*
X47100000Y5540000D03*
X47100000Y8080000D03*
X49640000Y5540000D03*
X49640000Y8080000D03*
X52180000Y5540000D03*
X52180000Y8080000D03*
X54720000Y5540000D03*
X54720000Y8080000D03*
X57260000Y5540000D03*
X57260000Y8080000D03*
X59800000Y5540000D03*
D11*
X59800000Y8080000D03*
D12*
X6560000Y5540000D03*
X64560000Y5540000D03*
X64560000Y29540000D03*
X6560000Y29540000D03*
%TD*%
D13*
%TO.C,C1*%
X6350000Y19050000D03*
D14*
X6350000Y16550000D03*
%TD*%
D11*
%TO.C,J1*%
X66040000Y22860000D03*
D10*
X66040000Y20320000D03*
X66040000Y17780000D03*
X66040000Y15240000D03*
X66040000Y12700000D03*
%TD*%
D15*
%TO.C,U1*%
X12700000Y38100000D03*
X15240000Y38100000D03*
X17780000Y38100000D03*
X20320000Y38100000D03*
X10160000Y38100000D03*
X22860000Y38100000D03*
X25400000Y38100000D03*
X58420000Y38100000D03*
X27940000Y38100000D03*
X30480000Y38100000D03*
X33020000Y38100000D03*
X35560000Y38100000D03*
X38100000Y38100000D03*
X40640000Y38100000D03*
X43180000Y38100000D03*
X45720000Y38100000D03*
X48260000Y38100000D03*
X50800000Y38100000D03*
X53340000Y38100000D03*
X55880000Y38100000D03*
X60960000Y63500000D03*
X58420000Y63500000D03*
X55880000Y63500000D03*
X53340000Y63500000D03*
X50800000Y63500000D03*
X48260000Y63500000D03*
X45720000Y63500000D03*
X43180000Y63500000D03*
X40640000Y63500000D03*
X38100000Y63500000D03*
X35560000Y63500000D03*
X33020000Y63500000D03*
X30480000Y63500000D03*
X27940000Y63500000D03*
X25400000Y63500000D03*
X17780000Y63500000D03*
X15240000Y63500000D03*
X60960000Y38100000D03*
X10160000Y63500000D03*
X12700000Y63500000D03*
X20320000Y63500000D03*
X22860000Y63500000D03*
%TD*%
D11*
%TO.C,U2*%
X48260000Y72390000D03*
D10*
X48260000Y74930000D03*
X45720000Y72390000D03*
X45720000Y74930000D03*
X43180000Y72390000D03*
X43180000Y74930000D03*
X40640000Y72390000D03*
X40640000Y74930000D03*
X38100000Y72390000D03*
X38100000Y74930000D03*
X35560000Y72390000D03*
X35560000Y74930000D03*
X33020000Y72390000D03*
X33020000Y74930000D03*
X30480000Y72390000D03*
X30480000Y74930000D03*
X27940000Y72390000D03*
X27940000Y74930000D03*
%TD*%
M02*
