M48
; DRILL file {KiCad 6.0.8-f2edbf62ab~116~ubuntu20.04.1} date Mon 24 Oct 2022 10:14:39 PM MDT
; FORMAT={2:4/ absolute / inch / suppress trailing zeros}
; #@! TF.CreationDate,2022-10-24T22:14:39-06:00
; #@! TF.GenerationSoftware,Kicad,Pcbnew,6.0.8-f2edbf62ab~116~ubuntu20.04.1
; #@! TF.FileFunction,MixedPlating,1,2
FMAT,2
INCH,LZ
; #@! TA.AperFunction,Plated,PTH,ViaDrill
T1C0.0157
; #@! TA.AperFunction,Plated,PTH,ComponentDrill
T2C0.0315
; #@! TA.AperFunction,Plated,PTH,ComponentDrill
T3C0.0394
; #@! TA.AperFunction,Plated,PTH,ComponentDrill
T4C0.0402
; #@! TA.AperFunction,NonPlated,NPTH,ComponentDrill
T5C0.1181
%
G90
G05
T1
X01425Y01225
X0175Y024
X0185Y024
T2
X0025Y0075
X0025Y006516
T3
X004543Y003181
X004543Y002181
X005543Y003181
X005543Y002181
X006543Y003181
X006543Y002181
X007543Y003181
X007543Y002181
X008543Y003181
X008543Y002181
X009543Y003181
X009543Y002181
X010543Y003181
X010543Y002181
X011Y0295
X011Y0285
X011543Y003181
X011543Y002181
X012Y0295
X012Y0285
X012543Y003181
X012543Y002181
X013Y0295
X013Y0285
X013543Y003181
X013543Y002181
X014Y0295
X014Y0285
X014543Y003181
X014543Y002181
X015Y0295
X015Y0285
X015543Y003181
X015543Y002181
X016Y0295
X016Y0285
X016543Y003181
X016543Y002181
X017Y0295
X017Y0285
X017543Y003181
X017543Y002181
X018Y0295
X018Y0285
X018543Y003181
X018543Y002181
X019Y0295
X019Y0285
X019543Y003181
X019543Y002181
X020543Y003181
X020543Y002181
X021543Y003181
X021543Y002181
X022543Y003181
X022543Y002181
X023543Y003181
X023543Y002181
X026Y009
X026Y008
X026Y007
X026Y006
X026Y005
T4
X004Y025
X004Y015
X005Y025
X005Y015
X006Y025
X006Y015
X007Y025
X007Y015
X008Y025
X008Y015
X009Y025
X009Y015
X01Y025
X01Y015
X011Y025
X011Y015
X012Y025
X012Y015
X013Y025
X013Y015
X014Y025
X014Y015
X015Y025
X015Y015
X016Y025
X016Y015
X017Y025
X017Y015
X018Y025
X018Y015
X019Y025
X019Y015
X02Y025
X02Y015
X021Y025
X021Y015
X022Y025
X022Y015
X023Y025
X023Y015
X024Y025
X024Y015
T5
X002583Y01163
X002583Y002181
X025417Y01163
X025417Y002181
T0
M30
