%TF.GenerationSoftware,KiCad,Pcbnew,6.0.8-f2edbf62ab~116~ubuntu20.04.1*%
%TF.CreationDate,2022-10-24T22:15:29-06:00*%
%TF.ProjectId,seedsigner-esp32-dev-board,73656564-7369-4676-9e65-722d65737033,rev?*%
%TF.SameCoordinates,Original*%
%TF.FileFunction,Legend,Top*%
%TF.FilePolarity,Positive*%
%FSLAX46Y46*%
G04 Gerber Fmt 4.6, Leading zero omitted, Abs format (unit mm)*
G04 Created by KiCad (PCBNEW 6.0.8-f2edbf62ab~116~ubuntu20.04.1) date 2022-10-24 22:15:29*
%MOMM*%
%LPD*%
G01*
G04 APERTURE LIST*
%ADD10C,0.300000*%
%ADD11C,0.400000*%
%ADD12C,0.150000*%
%ADD13C,1.250000*%
%ADD14C,0.500000*%
%ADD15C,0.120000*%
%ADD16C,0.127000*%
G04 APERTURE END LIST*
D10*
X10493333Y48514285D02*
X10493333Y49466666D01*
X11064761Y48323809D02*
X9064761Y48990476D01*
X11064761Y49657142D01*
X11064761Y50323809D02*
X9064761Y50323809D01*
X11064761Y51466666D01*
X9064761Y51466666D01*
X9064761Y52133333D02*
X9064761Y53276190D01*
X11064761Y52704761D02*
X9064761Y52704761D01*
X61864761Y44276190D02*
X59864761Y44276190D01*
X61293333Y44942857D01*
X59864761Y45609523D01*
X61864761Y45609523D01*
X61864761Y46561904D02*
X60531428Y46561904D01*
X59864761Y46561904D02*
X59960000Y46466666D01*
X60055238Y46561904D01*
X59960000Y46657142D01*
X59864761Y46561904D01*
X60055238Y46561904D01*
X61769523Y48371428D02*
X61864761Y48180952D01*
X61864761Y47800000D01*
X61769523Y47609523D01*
X61674285Y47514285D01*
X61483809Y47419047D01*
X60912380Y47419047D01*
X60721904Y47514285D01*
X60626666Y47609523D01*
X60531428Y47800000D01*
X60531428Y48180952D01*
X60626666Y48371428D01*
X61864761Y49228571D02*
X60531428Y49228571D01*
X60912380Y49228571D02*
X60721904Y49323809D01*
X60626666Y49419047D01*
X60531428Y49609523D01*
X60531428Y49800000D01*
X61864761Y50752380D02*
X61769523Y50561904D01*
X61674285Y50466666D01*
X61483809Y50371428D01*
X60912380Y50371428D01*
X60721904Y50466666D01*
X60626666Y50561904D01*
X60531428Y50752380D01*
X60531428Y51038095D01*
X60626666Y51228571D01*
X60721904Y51323809D01*
X60912380Y51419047D01*
X61483809Y51419047D01*
X61674285Y51323809D01*
X61769523Y51228571D01*
X61864761Y51038095D01*
X61864761Y50752380D01*
X59864761Y52276190D02*
X61483809Y52276190D01*
X61674285Y52371428D01*
X61769523Y52466666D01*
X61864761Y52657142D01*
X61864761Y53038095D01*
X61769523Y53228571D01*
X61674285Y53323809D01*
X61483809Y53419047D01*
X59864761Y53419047D01*
X61769523Y54276190D02*
X61864761Y54561904D01*
X61864761Y55038095D01*
X61769523Y55228571D01*
X61674285Y55323809D01*
X61483809Y55419047D01*
X61293333Y55419047D01*
X61102857Y55323809D01*
X61007619Y55228571D01*
X60912380Y55038095D01*
X60817142Y54657142D01*
X60721904Y54466666D01*
X60626666Y54371428D01*
X60436190Y54276190D01*
X60245714Y54276190D01*
X60055238Y54371428D01*
X59960000Y54466666D01*
X59864761Y54657142D01*
X59864761Y55133333D01*
X59960000Y55419047D01*
X60817142Y56942857D02*
X60912380Y57228571D01*
X61007619Y57323809D01*
X61198095Y57419047D01*
X61483809Y57419047D01*
X61674285Y57323809D01*
X61769523Y57228571D01*
X61864761Y57038095D01*
X61864761Y56276190D01*
X59864761Y56276190D01*
X59864761Y56942857D01*
X59960000Y57133333D01*
X60055238Y57228571D01*
X60245714Y57323809D01*
X60436190Y57323809D01*
X60626666Y57228571D01*
X60721904Y57133333D01*
X60817142Y56942857D01*
X60817142Y56276190D01*
D11*
X23925000Y51365714D02*
X24353571Y51222857D01*
X25067857Y51222857D01*
X25353571Y51365714D01*
X25496428Y51508571D01*
X25639285Y51794285D01*
X25639285Y52080000D01*
X25496428Y52365714D01*
X25353571Y52508571D01*
X25067857Y52651428D01*
X24496428Y52794285D01*
X24210714Y52937142D01*
X24067857Y53080000D01*
X23925000Y53365714D01*
X23925000Y53651428D01*
X24067857Y53937142D01*
X24210714Y54080000D01*
X24496428Y54222857D01*
X25210714Y54222857D01*
X25639285Y54080000D01*
X26782142Y52080000D02*
X28210714Y52080000D01*
X26496428Y51222857D02*
X27496428Y54222857D01*
X28496428Y51222857D01*
X30067857Y54222857D02*
X30639285Y54222857D01*
X30925000Y54080000D01*
X31210714Y53794285D01*
X31353571Y53222857D01*
X31353571Y52222857D01*
X31210714Y51651428D01*
X30925000Y51365714D01*
X30639285Y51222857D01*
X30067857Y51222857D01*
X29782142Y51365714D01*
X29496428Y51651428D01*
X29353571Y52222857D01*
X29353571Y53222857D01*
X29496428Y53794285D01*
X29782142Y54080000D01*
X30067857Y54222857D01*
X34067857Y51222857D02*
X32639285Y51222857D01*
X32639285Y54222857D01*
X34925000Y52080000D02*
X36353571Y52080000D01*
X34639285Y51222857D02*
X35639285Y54222857D01*
X36639285Y51222857D01*
X37639285Y52365714D02*
X39925000Y52365714D01*
X42925000Y51222857D02*
X41210714Y51222857D01*
X42067857Y51222857D02*
X42067857Y54222857D01*
X41782142Y53794285D01*
X41496428Y53508571D01*
X41210714Y53365714D01*
X45925000Y51222857D02*
X44925000Y52651428D01*
X44210714Y51222857D02*
X44210714Y54222857D01*
X45353571Y54222857D01*
X45639285Y54080000D01*
X45782142Y53937142D01*
X45925000Y53651428D01*
X45925000Y53222857D01*
X45782142Y52937142D01*
X45639285Y52794285D01*
X45353571Y52651428D01*
X44210714Y52651428D01*
X28496428Y47964285D02*
X29496428Y47964285D01*
X29925000Y46392857D02*
X28496428Y46392857D01*
X28496428Y49392857D01*
X29925000Y49392857D01*
X31067857Y46535714D02*
X31496428Y46392857D01*
X32210714Y46392857D01*
X32496428Y46535714D01*
X32639285Y46678571D01*
X32782142Y46964285D01*
X32782142Y47250000D01*
X32639285Y47535714D01*
X32496428Y47678571D01*
X32210714Y47821428D01*
X31639285Y47964285D01*
X31353571Y48107142D01*
X31210714Y48250000D01*
X31067857Y48535714D01*
X31067857Y48821428D01*
X31210714Y49107142D01*
X31353571Y49250000D01*
X31639285Y49392857D01*
X32353571Y49392857D01*
X32782142Y49250000D01*
X34067857Y46392857D02*
X34067857Y49392857D01*
X35210714Y49392857D01*
X35496428Y49250000D01*
X35639285Y49107142D01*
X35782142Y48821428D01*
X35782142Y48392857D01*
X35639285Y48107142D01*
X35496428Y47964285D01*
X35210714Y47821428D01*
X34067857Y47821428D01*
X36782142Y49392857D02*
X38639285Y49392857D01*
X37639285Y48250000D01*
X38067857Y48250000D01*
X38353571Y48107142D01*
X38496428Y47964285D01*
X38639285Y47678571D01*
X38639285Y46964285D01*
X38496428Y46678571D01*
X38353571Y46535714D01*
X38067857Y46392857D01*
X37210714Y46392857D01*
X36925000Y46535714D01*
X36782142Y46678571D01*
X39782142Y49107142D02*
X39925000Y49250000D01*
X40210714Y49392857D01*
X40925000Y49392857D01*
X41210714Y49250000D01*
X41353571Y49107142D01*
X41496428Y48821428D01*
X41496428Y48535714D01*
X41353571Y48107142D01*
X39639285Y46392857D01*
X41496428Y46392857D01*
X28718809Y25270238D02*
X29195000Y23270238D01*
X29575952Y24698809D01*
X29956904Y23270238D01*
X30433095Y25270238D01*
X32052142Y23270238D02*
X32052142Y24317857D01*
X31956904Y24508333D01*
X31766428Y24603571D01*
X31385476Y24603571D01*
X31195000Y24508333D01*
X32052142Y23365476D02*
X31861666Y23270238D01*
X31385476Y23270238D01*
X31195000Y23365476D01*
X31099761Y23555952D01*
X31099761Y23746428D01*
X31195000Y23936904D01*
X31385476Y24032142D01*
X31861666Y24032142D01*
X32052142Y24127380D01*
X32814047Y24603571D02*
X33290238Y23270238D01*
X33766428Y24603571D01*
X35290238Y23365476D02*
X35099761Y23270238D01*
X34718809Y23270238D01*
X34528333Y23365476D01*
X34433095Y23555952D01*
X34433095Y24317857D01*
X34528333Y24508333D01*
X34718809Y24603571D01*
X35099761Y24603571D01*
X35290238Y24508333D01*
X35385476Y24317857D01*
X35385476Y24127380D01*
X34433095Y23936904D01*
X36147380Y23365476D02*
X36337857Y23270238D01*
X36718809Y23270238D01*
X36909285Y23365476D01*
X37004523Y23555952D01*
X37004523Y23651190D01*
X36909285Y23841666D01*
X36718809Y23936904D01*
X36433095Y23936904D01*
X36242619Y24032142D01*
X36147380Y24222619D01*
X36147380Y24317857D01*
X36242619Y24508333D01*
X36433095Y24603571D01*
X36718809Y24603571D01*
X36909285Y24508333D01*
X37861666Y23270238D02*
X37861666Y25270238D01*
X38718809Y23270238D02*
X38718809Y24317857D01*
X38623571Y24508333D01*
X38433095Y24603571D01*
X38147380Y24603571D01*
X37956904Y24508333D01*
X37861666Y24413095D01*
X40528333Y23270238D02*
X40528333Y24317857D01*
X40433095Y24508333D01*
X40242619Y24603571D01*
X39861666Y24603571D01*
X39671190Y24508333D01*
X40528333Y23365476D02*
X40337857Y23270238D01*
X39861666Y23270238D01*
X39671190Y23365476D01*
X39575952Y23555952D01*
X39575952Y23746428D01*
X39671190Y23936904D01*
X39861666Y24032142D01*
X40337857Y24032142D01*
X40528333Y24127380D01*
X41480714Y23270238D02*
X41480714Y24603571D01*
X41480714Y24222619D02*
X41575952Y24413095D01*
X41671190Y24508333D01*
X41861666Y24603571D01*
X42052142Y24603571D01*
X43480714Y23365476D02*
X43290238Y23270238D01*
X42909285Y23270238D01*
X42718809Y23365476D01*
X42623571Y23555952D01*
X42623571Y24317857D01*
X42718809Y24508333D01*
X42909285Y24603571D01*
X43290238Y24603571D01*
X43480714Y24508333D01*
X43575952Y24317857D01*
X43575952Y24127380D01*
X42623571Y23936904D01*
X28909285Y20050238D02*
X27956904Y20050238D01*
X27956904Y22050238D01*
X30718809Y20240714D02*
X30623571Y20145476D01*
X30337857Y20050238D01*
X30147380Y20050238D01*
X29861666Y20145476D01*
X29671190Y20335952D01*
X29575952Y20526428D01*
X29480714Y20907380D01*
X29480714Y21193095D01*
X29575952Y21574047D01*
X29671190Y21764523D01*
X29861666Y21955000D01*
X30147380Y22050238D01*
X30337857Y22050238D01*
X30623571Y21955000D01*
X30718809Y21859761D01*
X31575952Y20050238D02*
X31575952Y22050238D01*
X32052142Y22050238D01*
X32337857Y21955000D01*
X32528333Y21764523D01*
X32623571Y21574047D01*
X32718809Y21193095D01*
X32718809Y20907380D01*
X32623571Y20526428D01*
X32528333Y20335952D01*
X32337857Y20145476D01*
X32052142Y20050238D01*
X31575952Y20050238D01*
X35004523Y22145476D02*
X33290238Y19574047D01*
X36337857Y21097857D02*
X36623571Y21002619D01*
X36718809Y20907380D01*
X36814047Y20716904D01*
X36814047Y20431190D01*
X36718809Y20240714D01*
X36623571Y20145476D01*
X36433095Y20050238D01*
X35671190Y20050238D01*
X35671190Y22050238D01*
X36337857Y22050238D01*
X36528333Y21955000D01*
X36623571Y21859761D01*
X36718809Y21669285D01*
X36718809Y21478809D01*
X36623571Y21288333D01*
X36528333Y21193095D01*
X36337857Y21097857D01*
X35671190Y21097857D01*
X38528333Y21383571D02*
X38528333Y20050238D01*
X37671190Y21383571D02*
X37671190Y20335952D01*
X37766428Y20145476D01*
X37956904Y20050238D01*
X38242619Y20050238D01*
X38433095Y20145476D01*
X38528333Y20240714D01*
X39195000Y21383571D02*
X39956904Y21383571D01*
X39480714Y22050238D02*
X39480714Y20335952D01*
X39575952Y20145476D01*
X39766428Y20050238D01*
X39956904Y20050238D01*
X40337857Y21383571D02*
X41099761Y21383571D01*
X40623571Y22050238D02*
X40623571Y20335952D01*
X40718809Y20145476D01*
X40909285Y20050238D01*
X41099761Y20050238D01*
X42052142Y20050238D02*
X41861666Y20145476D01*
X41766428Y20240714D01*
X41671190Y20431190D01*
X41671190Y21002619D01*
X41766428Y21193095D01*
X41861666Y21288333D01*
X42052142Y21383571D01*
X42337857Y21383571D01*
X42528333Y21288333D01*
X42623571Y21193095D01*
X42718809Y21002619D01*
X42718809Y20431190D01*
X42623571Y20240714D01*
X42528333Y20145476D01*
X42337857Y20050238D01*
X42052142Y20050238D01*
X43575952Y21383571D02*
X43575952Y20050238D01*
X43575952Y21193095D02*
X43671190Y21288333D01*
X43861666Y21383571D01*
X44147380Y21383571D01*
X44337857Y21288333D01*
X44433095Y21097857D01*
X44433095Y20050238D01*
X33004523Y17877857D02*
X33290238Y17782619D01*
X33385476Y17687380D01*
X33480714Y17496904D01*
X33480714Y17211190D01*
X33385476Y17020714D01*
X33290238Y16925476D01*
X33099761Y16830238D01*
X32337857Y16830238D01*
X32337857Y18830238D01*
X33004523Y18830238D01*
X33195000Y18735000D01*
X33290238Y18639761D01*
X33385476Y18449285D01*
X33385476Y18258809D01*
X33290238Y18068333D01*
X33195000Y17973095D01*
X33004523Y17877857D01*
X32337857Y17877857D01*
X34623571Y16830238D02*
X34433095Y16925476D01*
X34337857Y17020714D01*
X34242619Y17211190D01*
X34242619Y17782619D01*
X34337857Y17973095D01*
X34433095Y18068333D01*
X34623571Y18163571D01*
X34909285Y18163571D01*
X35099761Y18068333D01*
X35195000Y17973095D01*
X35290238Y17782619D01*
X35290238Y17211190D01*
X35195000Y17020714D01*
X35099761Y16925476D01*
X34909285Y16830238D01*
X34623571Y16830238D01*
X37004523Y16830238D02*
X37004523Y17877857D01*
X36909285Y18068333D01*
X36718809Y18163571D01*
X36337857Y18163571D01*
X36147380Y18068333D01*
X37004523Y16925476D02*
X36814047Y16830238D01*
X36337857Y16830238D01*
X36147380Y16925476D01*
X36052142Y17115952D01*
X36052142Y17306428D01*
X36147380Y17496904D01*
X36337857Y17592142D01*
X36814047Y17592142D01*
X37004523Y17687380D01*
X37956904Y16830238D02*
X37956904Y18163571D01*
X37956904Y17782619D02*
X38052142Y17973095D01*
X38147380Y18068333D01*
X38337857Y18163571D01*
X38528333Y18163571D01*
X40052142Y16830238D02*
X40052142Y18830238D01*
X40052142Y16925476D02*
X39861666Y16830238D01*
X39480714Y16830238D01*
X39290238Y16925476D01*
X39195000Y17020714D01*
X39099761Y17211190D01*
X39099761Y17782619D01*
X39195000Y17973095D01*
X39290238Y18068333D01*
X39480714Y18163571D01*
X39861666Y18163571D01*
X40052142Y18068333D01*
D12*
%TO.C,U3*%
X3048095Y34202619D02*
X3048095Y33393095D01*
X3095714Y33297857D01*
X3143333Y33250238D01*
X3238571Y33202619D01*
X3429047Y33202619D01*
X3524285Y33250238D01*
X3571904Y33297857D01*
X3619523Y33393095D01*
X3619523Y34202619D01*
X4000476Y34202619D02*
X4619523Y34202619D01*
X4286190Y33821666D01*
X4429047Y33821666D01*
X4524285Y33774047D01*
X4571904Y33726428D01*
X4619523Y33631190D01*
X4619523Y33393095D01*
X4571904Y33297857D01*
X4524285Y33250238D01*
X4429047Y33202619D01*
X4143333Y33202619D01*
X4048095Y33250238D01*
X4000476Y33297857D01*
%TO.C,C1*%
X6183333Y21232857D02*
X6135714Y21185238D01*
X5992857Y21137619D01*
X5897619Y21137619D01*
X5754761Y21185238D01*
X5659523Y21280476D01*
X5611904Y21375714D01*
X5564285Y21566190D01*
X5564285Y21709047D01*
X5611904Y21899523D01*
X5659523Y21994761D01*
X5754761Y22090000D01*
X5897619Y22137619D01*
X5992857Y22137619D01*
X6135714Y22090000D01*
X6183333Y22042380D01*
X7135714Y21137619D02*
X6564285Y21137619D01*
X6850000Y21137619D02*
X6850000Y22137619D01*
X6754761Y21994761D01*
X6659523Y21899523D01*
X6564285Y21851904D01*
%TO.C,J1*%
X65706666Y25737619D02*
X65706666Y25023333D01*
X65659047Y24880476D01*
X65563809Y24785238D01*
X65420952Y24737619D01*
X65325714Y24737619D01*
X66706666Y24737619D02*
X66135238Y24737619D01*
X66420952Y24737619D02*
X66420952Y25737619D01*
X66325714Y25594761D01*
X66230476Y25499523D01*
X66135238Y25451904D01*
%TO.C,U1*%
X7072380Y63373095D02*
X7881904Y63373095D01*
X7977142Y63420714D01*
X8024761Y63468333D01*
X8072380Y63563571D01*
X8072380Y63754047D01*
X8024761Y63849285D01*
X7977142Y63896904D01*
X7881904Y63944523D01*
X7072380Y63944523D01*
X8072380Y64944523D02*
X8072380Y64373095D01*
X8072380Y64658809D02*
X7072380Y64658809D01*
X7215238Y64563571D01*
X7310476Y64468333D01*
X7358095Y64373095D01*
X9398095Y66540000D02*
X9302857Y66587619D01*
X9160000Y66587619D01*
X9017142Y66540000D01*
X8921904Y66444761D01*
X8874285Y66349523D01*
X8826666Y66159047D01*
X8826666Y66016190D01*
X8874285Y65825714D01*
X8921904Y65730476D01*
X9017142Y65635238D01*
X9160000Y65587619D01*
X9255238Y65587619D01*
X9398095Y65635238D01*
X9445714Y65682857D01*
X9445714Y66016190D01*
X9255238Y66016190D01*
X9874285Y65587619D02*
X9874285Y66587619D01*
X10445714Y65587619D01*
X10445714Y66587619D01*
X10921904Y65587619D02*
X10921904Y66587619D01*
X11160000Y66587619D01*
X11302857Y66540000D01*
X11398095Y66444761D01*
X11445714Y66349523D01*
X11493333Y66159047D01*
X11493333Y66016190D01*
X11445714Y65825714D01*
X11398095Y65730476D01*
X11302857Y65635238D01*
X11160000Y65587619D01*
X10921904Y65587619D01*
X8921904Y36107619D02*
X9540952Y36107619D01*
X9207619Y35726666D01*
X9350476Y35726666D01*
X9445714Y35679047D01*
X9493333Y35631428D01*
X9540952Y35536190D01*
X9540952Y35298095D01*
X9493333Y35202857D01*
X9445714Y35155238D01*
X9350476Y35107619D01*
X9064761Y35107619D01*
X8969523Y35155238D01*
X8921904Y35202857D01*
X9826666Y36107619D02*
X10160000Y35107619D01*
X10493333Y36107619D01*
X10731428Y36107619D02*
X11350476Y36107619D01*
X11017142Y35726666D01*
X11160000Y35726666D01*
X11255238Y35679047D01*
X11302857Y35631428D01*
X11350476Y35536190D01*
X11350476Y35298095D01*
X11302857Y35202857D01*
X11255238Y35155238D01*
X11160000Y35107619D01*
X10874285Y35107619D01*
X10779047Y35155238D01*
X10731428Y35202857D01*
%TO.C,U3*%
D13*
X17185000Y20040000D02*
G75*
G03*
X17185000Y20040000I-625000J0D01*
G01*
D14*
X56560000Y25540000D02*
X56560000Y27540000D01*
D15*
X58530000Y9410000D02*
X58530000Y6810000D01*
D14*
X45560000Y11540000D02*
X45560000Y30540000D01*
X56560000Y27540000D02*
X52560000Y27540000D01*
D15*
X68060000Y32540000D02*
X3060000Y32540000D01*
X59800000Y9410000D02*
X61130000Y9410000D01*
X58530000Y6810000D02*
X61130000Y6810000D01*
D14*
X56560000Y21540000D02*
X52560000Y21540000D01*
X13560000Y19040000D02*
X15560000Y17040000D01*
X52560000Y27540000D02*
X52560000Y25540000D01*
X15560000Y23040000D02*
X13560000Y21040000D01*
X52560000Y21540000D02*
X52560000Y19540000D01*
X56560000Y13540000D02*
X56560000Y15540000D01*
X17560000Y17040000D02*
X19560000Y19040000D01*
D15*
X10210000Y9410000D02*
X10210000Y4210000D01*
D14*
X26560000Y30540000D02*
X26560000Y11540000D01*
D15*
X3060000Y32540000D02*
X3060000Y2540000D01*
D14*
X52560000Y15540000D02*
X52560000Y13540000D01*
X15560000Y17040000D02*
X17560000Y17040000D01*
X52560000Y19540000D02*
X56560000Y19540000D01*
X56560000Y15540000D02*
X52560000Y15540000D01*
D15*
X68060000Y2540000D02*
X68060000Y32540000D01*
D14*
X56560000Y19540000D02*
X56560000Y21540000D01*
X17560000Y23040000D02*
X15560000Y23040000D01*
X45560000Y30540000D02*
X26560000Y30540000D01*
D15*
X61130000Y4210000D02*
X10210000Y4210000D01*
D14*
X19560000Y19040000D02*
X19560000Y21040000D01*
X26560000Y11540000D02*
X45560000Y11540000D01*
X52560000Y13540000D02*
X56560000Y13540000D01*
D15*
X61130000Y6810000D02*
X61130000Y4210000D01*
X61130000Y9410000D02*
X61130000Y8080000D01*
D14*
X19560000Y21040000D02*
X17560000Y23040000D01*
D15*
X58530000Y9410000D02*
X10210000Y9410000D01*
X3060000Y2540000D02*
X68060000Y2540000D01*
D14*
X52560000Y25540000D02*
X56560000Y25540000D01*
X13560000Y21040000D02*
X13560000Y19040000D01*
D15*
%TO.C,C1*%
X8715000Y16759000D02*
X7390000Y16759000D01*
X5310000Y16359000D02*
X4201000Y16359000D01*
X7027000Y15279000D02*
X5673000Y15279000D01*
X7825000Y20604775D02*
X7825000Y20104775D01*
X8093000Y15879000D02*
X7390000Y15879000D01*
X5310000Y17400000D02*
X3800000Y17400000D01*
X5310000Y16079000D02*
X4413000Y16079000D01*
X8321000Y16119000D02*
X7390000Y16119000D01*
X7528000Y15479000D02*
X5172000Y15479000D01*
X8698000Y16719000D02*
X7390000Y16719000D01*
X5310000Y17079000D02*
X3870000Y17079000D01*
X7361000Y15399000D02*
X5339000Y15399000D01*
X8830000Y17079000D02*
X7390000Y17079000D01*
X5310000Y16719000D02*
X4002000Y16719000D01*
X5310000Y16959000D02*
X3908000Y16959000D01*
X8929000Y17720000D02*
X3771000Y17720000D01*
X5310000Y16479000D02*
X4126000Y16479000D01*
X7904000Y15719000D02*
X7390000Y15719000D01*
X8792000Y16959000D02*
X7390000Y16959000D01*
X5310000Y17039000D02*
X3882000Y17039000D01*
X5310000Y16119000D02*
X4379000Y16119000D01*
X8214000Y15999000D02*
X7390000Y15999000D01*
X7955000Y15759000D02*
X7390000Y15759000D01*
X8445000Y16279000D02*
X7390000Y16279000D01*
X5310000Y15759000D02*
X4745000Y15759000D01*
X7793000Y15639000D02*
X7390000Y15639000D01*
X5310000Y17480000D02*
X3789000Y17480000D01*
X8003000Y15799000D02*
X7390000Y15799000D01*
X8075000Y20354775D02*
X7575000Y20354775D01*
X8861000Y17200000D02*
X7390000Y17200000D01*
X5310000Y16159000D02*
X4346000Y16159000D01*
X5310000Y15679000D02*
X4850000Y15679000D01*
X5310000Y16399000D02*
X4175000Y16399000D01*
X8906000Y17440000D02*
X7390000Y17440000D01*
X8778000Y16919000D02*
X7390000Y16919000D01*
X8732000Y16799000D02*
X7390000Y16799000D01*
X8660000Y16639000D02*
X7390000Y16639000D01*
X8915000Y17520000D02*
X7390000Y17520000D01*
X8911000Y17480000D02*
X7390000Y17480000D01*
X6868000Y15239000D02*
X5832000Y15239000D01*
X5310000Y15519000D02*
X5099000Y15519000D01*
X5310000Y16799000D02*
X3968000Y16799000D01*
X5310000Y16759000D02*
X3985000Y16759000D01*
X8878000Y17280000D02*
X7390000Y17280000D01*
X5310000Y16439000D02*
X4150000Y16439000D01*
X5310000Y16879000D02*
X3936000Y16879000D01*
X8415000Y16239000D02*
X7390000Y16239000D01*
X8251000Y16039000D02*
X7390000Y16039000D01*
X5310000Y17560000D02*
X3781000Y17560000D01*
X5310000Y16679000D02*
X4021000Y16679000D01*
X5310000Y16919000D02*
X3922000Y16919000D01*
X5310000Y16039000D02*
X4449000Y16039000D01*
X5310000Y17120000D02*
X3859000Y17120000D01*
X5310000Y16559000D02*
X4082000Y16559000D01*
X8618000Y16559000D02*
X7390000Y16559000D01*
X5310000Y17360000D02*
X3807000Y17360000D01*
X8354000Y16159000D02*
X7390000Y16159000D01*
X8472000Y16319000D02*
X7390000Y16319000D01*
X5310000Y16519000D02*
X4103000Y16519000D01*
X8385000Y16199000D02*
X7390000Y16199000D01*
X5310000Y16639000D02*
X4040000Y16639000D01*
X5310000Y16319000D02*
X4228000Y16319000D01*
X8818000Y17039000D02*
X7390000Y17039000D01*
X5310000Y15599000D02*
X4967000Y15599000D01*
X7850000Y15679000D02*
X7390000Y15679000D01*
X8900000Y17400000D02*
X7390000Y17400000D01*
X8919000Y17560000D02*
X7390000Y17560000D01*
X8928000Y17680000D02*
X3772000Y17680000D01*
X8886000Y17320000D02*
X7390000Y17320000D01*
X8764000Y16879000D02*
X7390000Y16879000D01*
X5310000Y15919000D02*
X4565000Y15919000D01*
X8923000Y17600000D02*
X3777000Y17600000D01*
X8640000Y16599000D02*
X7390000Y16599000D01*
X5310000Y17240000D02*
X3830000Y17240000D01*
X8049000Y15839000D02*
X7390000Y15839000D01*
X5310000Y15639000D02*
X4907000Y15639000D01*
X5310000Y16199000D02*
X4315000Y16199000D01*
X5310000Y16839000D02*
X3952000Y16839000D01*
X8176000Y15959000D02*
X7390000Y15959000D01*
X7265000Y15359000D02*
X5435000Y15359000D01*
X8893000Y17360000D02*
X7390000Y17360000D01*
X5310000Y17160000D02*
X3849000Y17160000D01*
X7669000Y15559000D02*
X7390000Y15559000D01*
X8748000Y16839000D02*
X7390000Y16839000D01*
X8851000Y17160000D02*
X7390000Y17160000D01*
X5310000Y17200000D02*
X3839000Y17200000D01*
X8287000Y16079000D02*
X7390000Y16079000D01*
X8841000Y17120000D02*
X7390000Y17120000D01*
X8870000Y17240000D02*
X7390000Y17240000D01*
X8135000Y15919000D02*
X7390000Y15919000D01*
X5310000Y17520000D02*
X3785000Y17520000D01*
X7601000Y15519000D02*
X7390000Y15519000D01*
X8679000Y16679000D02*
X7390000Y16679000D01*
X7448000Y15439000D02*
X5252000Y15439000D01*
X8597000Y16519000D02*
X7390000Y16519000D01*
X5310000Y15799000D02*
X4697000Y15799000D01*
X7733000Y15599000D02*
X7390000Y15599000D01*
X5310000Y16239000D02*
X4285000Y16239000D01*
X7155000Y15319000D02*
X5545000Y15319000D01*
X5310000Y15999000D02*
X4486000Y15999000D01*
X5310000Y15719000D02*
X4796000Y15719000D01*
X6634000Y15199000D02*
X6066000Y15199000D01*
X8525000Y16399000D02*
X7390000Y16399000D01*
X5310000Y17320000D02*
X3814000Y17320000D01*
X5310000Y16999000D02*
X3895000Y16999000D01*
X5310000Y16279000D02*
X4255000Y16279000D01*
X5310000Y15879000D02*
X4607000Y15879000D01*
X5310000Y15559000D02*
X5031000Y15559000D01*
X5310000Y17280000D02*
X3822000Y17280000D01*
X5310000Y17440000D02*
X3794000Y17440000D01*
X5310000Y15959000D02*
X4524000Y15959000D01*
X8926000Y17640000D02*
X3774000Y17640000D01*
X8499000Y16359000D02*
X7390000Y16359000D01*
X8805000Y16999000D02*
X7390000Y16999000D01*
X5310000Y15839000D02*
X4651000Y15839000D01*
X8550000Y16439000D02*
X7390000Y16439000D01*
X8574000Y16479000D02*
X7390000Y16479000D01*
X5310000Y16599000D02*
X4060000Y16599000D01*
X8930000Y17760000D02*
X3770000Y17760000D01*
X8930000Y17800000D02*
X3770000Y17800000D01*
X8970000Y17800000D02*
G75*
G03*
X8970000Y17800000I-2620000J0D01*
G01*
%TO.C,J1*%
X67370000Y21590000D02*
X67370000Y11370000D01*
X64710000Y11370000D02*
X67370000Y11370000D01*
X64710000Y21590000D02*
X64710000Y11370000D01*
X64710000Y22860000D02*
X64710000Y24190000D01*
X64710000Y21590000D02*
X67370000Y21590000D01*
X64710000Y24190000D02*
X66040000Y24190000D01*
D16*
%TO.C,U1*%
X62510000Y64750000D02*
X62510000Y36850000D01*
X8610000Y36850000D02*
X8610000Y64750000D01*
X62510000Y36850000D02*
X8610000Y36850000D01*
X8610000Y64750000D02*
X62510000Y64750000D01*
%TD*%
M02*
